
<svg width="672px" height="227px" viewBox="0 0 672 227" version="1.1" xmlns="http://www.w3.org/2000/svg" xmlns:xlink="http://www.w3.org/1999/xlink">
    <!-- Generator: Sketch 48.2 (47327) - http://www.bohemiancoding.com/sketch -->
    <desc>Created with Sketch.</desc>
    <defs>
        <polygon id="path-1" points="0 227 672 227 672 0 0 0"></polygon>
    </defs>
    <g id="WEBSITE" stroke="none" stroke-width="1" fill="none" fill-rule="evenodd" opacity="0.25">
        <g id="About-Us" transform="translate(-384.000000, -3290.000000)">
            <g id="Page-1" transform="translate(384.000000, 3290.000000)">
                <path d="M263.633314,79 L261.750426,73.7879477 C261.670267,73.6293348 261.603752,73.4553724 261.428084,73.4553724 L261.228539,73.4553724 C261.027288,73.4553724 261,73.3752132 261,73.2541217 L261,73 L263.566799,73 L263.566799,73.2541217 C263.566799,73.3752132 263.539511,73.4553724 263.33826,73.4553724 L262.93917,73.4553724 C262.763502,73.4553724 262.671404,73.5884025 262.763502,73.8032973 L264.194429,77.8112564 L265.717453,73.8032973 C265.809551,73.5884025 265.717453,73.4553724 265.543491,73.4553724 L265.20921,73.4553724 C265.009665,73.4553724 264.982376,73.3752132 264.982376,73.2541217 L264.982376,73 L267,73 L267,73.2541217 C267,73.3752132 266.972712,73.4553724 266.773167,73.4553724 L266.573621,73.4553724 C266.397953,73.4553724 266.331438,73.6293348 266.251279,73.7879477 L264.221717,79 L263.633314,79 Z" id="Fill-1" fill="#000000"></path>
                <path d="M276.046638,75.8960261 L278.949747,75.745509 C279.078091,74.6556886 278.866594,73.4782254 277.745842,73.4782254 C276.514823,73.4782254 276.019523,74.9090909 276.046638,75.8960261 M280,75.5073489 C280,75.732172 279.983731,76.044638 279.971077,76.1932499 L276.061099,76.4028307 C276.07556,77.8813283 276.939624,79.2245509 278.214027,79.2245509 C278.949747,79.2245509 279.401663,78.8796952 279.687274,78.4757757 C279.828272,78.5367447 279.940347,78.77681 279.813811,78.9997278 C279.55893,79.4760479 278.796095,80 277.66269,80 C275.961678,80 275,78.5215024 275,76.4923789 C275,74.4918345 276.160521,73 277.930224,73 C279.305857,73 280,74.0593359 280,75.5073489" id="Fill-3" fill="#000000"></path>
                <path d="M294.981687,75.6494413 L294.981687,79.1103352 C294.981687,79.2941341 295.122517,79.477933 295.321125,79.477933 L295.759866,79.477933 C295.972917,79.477933 296,79.5698324 296,79.7086592 L296,80 L293.001032,80 L293.001032,79.7086592 C293.001032,79.5698324 293.02992,79.477933 293.241166,79.477933 L293.665463,79.477933 C293.835182,79.477933 293.992262,79.2941341 293.992262,79.1103352 L293.992262,75.6631285 C293.992262,74.622905 293.764767,73.8251397 292.748259,73.8251397 C291.72814,73.8251397 291.218984,74.8673184 291.049265,75.5575419 L291.049265,79.1103352 C291.049265,79.2941341 291.20454,79.477933 291.388703,79.477933 L291.827444,79.477933 C292.03869,79.477933 292.069384,79.5698324 292.069384,79.7086592 L292.069384,80 L289.070415,80 L289.070415,79.7086592 C289.070415,79.5698324 289.097498,79.477933 289.308744,79.477933 L289.749291,79.477933 C289.931648,79.477933 290.072479,79.2941341 290.072479,79.1103352 L290.072479,73.7039106 L289.027083,73.7801676 L289,73.5044693 C289,73.3519553 289.012639,73.2756983 289.22569,73.2600559 L290.782048,73.1231844 C290.964405,73.1055866 291.049265,73.152514 291.049265,73.3343575 L291.049265,74.6072626 C291.218984,73.9932961 291.784111,73 292.959505,73 C294.358783,73 294.981687,73.8251397 294.981687,75.6494413" id="Fill-5" fill="#000000"></path>
                <path d="M307.265204,73.2162904 L309,73.2162904 L309,73.5733277 C309,73.7081663 308.968096,73.7974256 308.734796,73.7974256 L307.265204,73.7974256 L307.265204,77.8425828 C307.265204,78.9136949 307.360917,79.45115 308.030907,79.45115 C308.421735,79.45115 308.702891,79.2574383 308.798604,79.1510867 L308.938185,79.3466976 C308.984048,79.4055708 308.968096,79.4796371 308.922233,79.5404094 C308.688933,79.8366744 308.234297,80 307.827517,80 C306.595214,80 306.188435,79.4796371 306.188435,77.9489344 L306.188435,73.7974256 L305,73.7974256 L305,73.4403883 C305,73.3055497 305.031904,73.2162904 305.267198,73.2162904 L306.188435,73.2162904 L306.188435,71.2525849 C306.188435,71.0873602 306.266201,71 306.437687,71 L307.265204,71 L307.265204,73.2162904 Z" id="Fill-7" fill="#000000"></path>
                <path d="M322.969134,78.9761619 C322.969134,79.1594777 323.126602,79.3427934 323.311535,79.3427934 L323.758305,79.3427934 C323.972535,79.3427934 324,79.4344513 324,79.5729132 L324,79.8634882 L322.121371,79.8634882 C322.020664,79.8634882 321.978551,79.756229 321.978551,79.6938236 L321.978551,78.3794105 C321.821083,78.9917632 321.233325,80 320.127387,80 C318.708344,80 318.09129,79.175079 318.09129,77.3555724 L318.09129,73.5839477 L317.029296,73.6600043 L317,73.3850306 C317,73.2329175 317.016479,73.156861 317.230709,73.1412596 L318.80905,73.0027977 C318.993984,72.9871964 319.081873,73.0340004 319.081873,73.215366 L319.081873,77.1586054 C319.081873,78.2877526 319.310751,79.175079 320.343448,79.175079 C321.432906,79.175079 321.821083,78.0751843 321.978551,77.3887252 L321.978551,73.5839477 L320.916558,73.6600043 L320.887261,73.3850306 C320.887261,73.2329175 320.903741,73.156861 321.11797,73.1412596 L322.696312,73.0027977 C322.881245,72.9871964 322.969134,73.0340004 322.969134,73.215366 L322.969134,78.9761619 Z" id="Fill-9" fill="#000000"></path>
                <path d="M336.88494,74.3538548 C336.730594,74.2098277 336.472802,73.9421067 336.009761,73.9421067 C335.251164,73.9421067 335.032779,74.6334369 334.865297,75.2824061 L334.865297,78.2307258 C334.865297,78.3900028 334.995014,78.5492799 335.160854,78.5492799 L335.753612,78.5492799 C335.945724,78.5492799 335.970354,78.6289184 335.970354,78.7475289 L335.970354,79 L333.064037,79 L333.064037,78.7475289 C333.064037,78.6289184 333.088667,78.5492799 333.284064,78.5492799 L333.681424,78.5492799 C333.848907,78.5492799 333.976982,78.3900028 333.976982,78.2307258 L333.976982,73.5439141 L333.02463,73.6116916 L333,73.3710816 C333,73.2389156 333.013136,73.1728325 333.20689,73.159277 L334.620641,73.0406665 C334.788123,73.027111 334.865297,73.066083 334.865297,73.2253601 L334.865297,74.5809093 C334.980236,74.0217453 335.392375,73 336.229788,73 C336.922706,73 337.167362,73.5964417 336.88494,74.3538548" id="Fill-11" fill="#000000"></path>
                <path d="M347.048445,75.8960261 L349.949747,75.745509 C350.078091,74.6556886 349.866594,73.4782254 348.74765,73.4782254 C347.514823,73.4782254 347.019523,74.9090909 347.048445,75.8960261 M351,75.5073489 C351,75.732172 350.985539,76.044638 350.971077,76.1932499 L347.062907,76.4028307 C347.077368,77.8813283 347.939624,79.2245509 349.214027,79.2245509 C349.949747,79.2245509 350.403471,78.8796952 350.689082,78.4757757 C350.83008,78.5367447 350.942155,78.77681 350.813811,78.9997278 C350.55893,79.4760479 349.796095,80 348.66269,80 C346.963485,80 346,78.5215024 346,76.4923789 C346,74.4918345 347.160521,73 348.932032,73 C350.305857,73 351,74.0593359 351,75.5073489" id="Fill-13" fill="#000000"></path>
                <path d="M363.751261,73.9980989 C363.751261,74.3707224 363.527731,74.5190114 363.25042,74.5190114 C363.001681,74.5190114 362.959664,74.4448669 362.909244,74.3992395 C362.936134,73.9980989 362.645378,73.4771863 362.026891,73.4771863 C361.433613,73.4771863 361.052101,73.9220532 361.052101,74.5798479 C361.052101,75.3688213 361.605042,75.6653992 362.342857,76.1121673 C363.290756,76.6787072 364,77.0513308 364,78.1387833 C364,79.418251 362.921008,80 361.907563,80 C360.946218,80 360,79.7015209 360,78.9885932 C360,78.6596958 360.196639,78.4657795 360.485714,78.4657795 C360.763025,78.4657795 360.842017,78.539924 360.894118,78.5855513 C360.867227,79.0171103 361.223529,79.5228137 361.882353,79.5228137 C362.514286,79.5228137 362.97479,79.0760456 362.97479,78.3612167 C362.97479,77.6901141 362.460504,77.3935361 361.868908,77.0513308 C361.119328,76.6178707 360.144538,76.0665399 360.144538,74.9353612 C360.144538,73.6539924 360.946218,73 362.013445,73 C362.909244,73 363.751261,73.3574144 363.751261,73.9980989" id="Fill-15" fill="#000000"></path>
                <path d="M347,2.08586369 C347,2.90127987 346.816485,3.44549736 345.445627,3.44549736 L341.333054,3.44549736 C340.145711,3.44549736 339.231806,4.53393234 339.231806,5.62054719 L339.231806,57.3794528 C339.231806,58.4678878 340.145711,59.5545026 341.333054,59.5545026 L345.445627,59.5545026 C346.816485,59.5545026 347,60.0987201 347,60.9159564 L347,63 L321.763003,63 L321.763003,60.9159564 C321.763003,60.0987201 321.946518,59.5545026 323.317376,59.5545026 L327.064755,59.5545026 C328.252097,59.5545026 329.166003,58.4678878 329.166003,57.3794528 L329.166003,8.15780198 L310.693372,47.5853581 L309.322515,47.5853581 L288.242135,8.15780198 L288.242135,57.3794528 C288.242135,58.4678878 289.15604,59.5545026 290.345218,59.5545026 L294.092596,59.5545026 C295.463454,59.5545026 295.646969,60.0987201 295.646969,60.9159564 L295.646969,63 L277.36703,63 L277.36703,60.9159564 C277.36703,60.0987201 277.54871,59.5545026 278.919568,59.5545026 L282.666946,59.5545026 C283.856124,59.5545026 284.770029,58.4678878 284.770029,57.3794528 L284.770029,5.62054719 C284.770029,4.53393234 283.856124,3.44549736 282.666946,3.44549736 L278.554373,3.44549736 C277.18535,3.44549736 277,2.90127987 277,2.08586369 L277,0 L292.721739,0 L312.337668,35.1666426 L329.074245,0 L347,0 L347,2.08586369 Z" id="Fill-17" fill="#000000"></path>
                <path d="M281.000667,14 C280.701953,14 280.502811,14.0681099 280.502811,14.5743318 L280.502811,15.04926 C280.502811,16.5329504 279.425631,16.8919078 278.520438,16.9692217 L247.477751,16.9692217 C246.570748,16.8919078 245.497189,16.5329504 245.497189,15.04926 L245.497189,14.5743318 C245.497189,14.0681099 245.296236,14 244.995712,14 L244,14 L244,16.9692217 L244,18.2338561 L244,28.1337162 L245.995045,28.1337162 C246.594283,28.1337162 246.994378,27.9993373 246.994378,26.9850526 L246.994378,26.037037 C246.994378,22.3149253 249.190376,19.4727192 253.117103,19.4727192 L260.369509,19.4727192 L260.369509,59.80296 C260.369509,60.6147559 259.703287,61.4283926 258.839733,61.4283926 L256.111482,61.4283926 C255.112149,61.4283926 254.97999,61.8333701 254.97999,62.4408365 L254.97999,64 L271.018199,64 L271.018199,62.4408365 C271.018199,61.8333701 270.886041,61.4283926 269.886708,61.4283926 L267.158456,61.4283926 C266.293092,61.4283926 265.62868,60.6147559 265.62868,59.80296 L265.62868,19.4727192 L272.882897,19.4727192 C276.807813,19.4727192 279.003811,22.3149253 279.003811,26.037037 L279.003811,26.9850526 C279.003811,27.9993373 279.403907,28.1337162 280.001334,28.1337162 L282,28.1337162 L282,18.2338561 L282,16.9692217 L282,14 L281.000667,14 Z" id="Fill-19" fill="#000000"></path>
                <path d="M378.002477,14 C377.701953,14 377.502811,14.0681099 377.502811,14.5743318 L377.502811,15.04926 C377.502811,16.5329504 376.427442,16.8919078 375.520438,16.9692217 L344.477751,16.9692217 C343.572558,16.8919078 342.497189,16.5329504 342.497189,15.04926 L342.497189,14.5743318 C342.497189,14.0681099 342.298047,14 341.997523,14 L341,14 L341,16.9692217 L341,18.2338561 L341,28.1337162 L342.996856,28.1337162 C343.596093,28.1337162 343.994378,27.9993373 343.994378,26.9850526 L343.994378,26.037037 C343.994378,22.3149253 346.192187,19.4727192 350.117103,19.4727192 L357.37132,19.4727192 L357.37132,59.80296 C357.37132,60.6147559 356.705098,61.4283926 355.841544,61.4283926 L353.111482,61.4283926 C352.113959,61.4283926 351.97999,61.8333701 351.97999,62.4408365 L351.97999,64 L368.018199,64 L368.018199,62.4408365 C368.018199,61.8333701 367.886041,61.4283926 366.886708,61.4283926 L364.160267,61.4283926 C363.294902,61.4283926 362.62868,60.6147559 362.62868,59.80296 L362.62868,19.4727192 L369.882897,19.4727192 C373.809624,19.4727192 376.003811,22.3149253 376.003811,26.037037 L376.003811,26.9850526 C376.003811,27.9993373 376.403907,28.1337162 377.003144,28.1337162 L379,28.1337162 L379,18.2338561 L379,16.9692217 L379,14 L378.002477,14 Z" id="Fill-21" fill="#000000"></path>
                <mask id="mask-2" fill="white">
                    <use xlink:href="#path-1"></use>
                </mask>
                <g id="Clip-24"></g>
                <polygon id="Fill-23" fill="#000000" mask="url(#mask-2)" points="244 68.416 380 68.416 380 67 244 67"></polygon>
                <path d="M135.045439,48.4202754 C139.213982,48.4423778 141.812435,45.59669 141.553508,41.5814153 C141.509435,40.8851888 141.193581,40.826249 140.666545,40.8612445 C139.335182,40.9441286 137.996474,40.9570217 136.674293,41.1043712 C135.074821,41.2830325 133.477186,41.5482617 132.131132,42.5483966 C130.210297,43.9740033 130.406788,46.694444 132.509423,47.8327191 C133.361495,48.2950283 134.283349,48.4350103 135.045439,48.4202754 M79.4110014,32.8306951 C81.0637276,30.3202274 83.2269627,28.9572443 86.0255791,28.7822667 C91.2096304,28.4599396 94.6858646,31.8987093 94.73361,37.3616931 C94.7629918,40.8244071 94.7391191,44.287121 94.7391191,48.0666365 C95.7105549,47.2377954 96.5093726,46.5894575 97.2659539,45.8969147 C97.7580991,45.4438149 98.0427352,45.4088193 98.5587531,45.9742732 C100.459388,48.0519015 102.82095,48.8346959 105.592021,48.1550462 C107.11253,47.7829887 107.992147,46.8270586 108.067438,45.5340664 C108.150074,44.1342459 107.61202,43.3919727 106.052948,42.7160067 C104.31575,41.9645241 102.437151,41.6937693 100.65037,41.1006875 C97.5542628,40.0766082 96.0466092,38.306572 96.015391,35.5990244 C95.9805002,32.6280895 97.6368991,30.2741807 100.641188,29.3642974 C104.945622,28.060254 108.851565,28.7583224 112.197417,32.0810543 C112.538981,31.565331 112.399417,30.9630398 112.355345,30.4288977 C112.278217,29.5116469 112.638144,29.2445759 113.501235,29.3256181 C114.200889,29.3919254 114.915234,29.2998319 115.618561,29.3495624 C116.369633,29.4048185 116.663451,29.1616918 116.634069,28.3678462 C116.578978,26.8722484 116.643251,25.3748088 116.606524,23.8773692 C116.591833,23.2529756 116.812196,23.05037 117.421869,23.0835236 C118.551232,23.1461472 119.987267,22.7427779 120.730994,23.2971805 C121.452684,23.8368481 120.936666,25.358232 120.949521,26.4449348 C120.984412,29.3403531 120.962376,29.3403531 123.794046,29.3403531 L124.146628,29.3403531 C127.029717,29.3403531 127.172953,29.5319075 126.803845,32.45127 C126.73039,33.0388263 126.423718,33.0277751 126.014209,33.0259332 C124.638773,33.0204076 123.263338,33.057245 121.891575,33.0093564 C121.204775,32.9872539 120.931157,33.1327616 120.944012,33.9045048 C120.997266,37.5274613 120.938503,41.1522598 121.010121,44.7733745 C121.067048,47.6356391 123.876683,49.0925576 126.322718,47.609853 C126.566954,47.4606616 126.638572,47.313312 126.577972,47.0443991 C125.2815,41.3217118 129.209479,39.1096269 133.741622,38.2457903 C136.020548,37.8092673 138.338037,37.7116483 140.651854,37.7300669 C141.423126,37.7355926 141.566363,37.4519447 141.544326,36.7630857 C141.463526,34.1863107 139.647364,32.5046842 136.681638,32.3610184 C134.435767,32.2505063 132.395568,32.8951605 130.674897,34.3318184 C130.037679,34.8622767 129.72917,34.7646577 129.323334,34.1715758 C129.057061,33.7847833 128.776098,33.3832558 128.419844,33.0867149 C127.433717,32.2615575 127.826699,31.7237317 128.695298,31.1545942 C132.127459,28.9038301 135.846094,28.1744499 139.818146,29.1837942 C143.509234,30.1176218 145.705524,33.0406681 145.738578,36.8662303 C145.771633,40.6052247 145.756942,44.3479027 145.789996,48.0887389 C145.795505,48.9120544 145.865287,49.7408955 145.980978,50.5568436 C146.072796,51.2107071 145.834069,51.4280477 145.224397,51.3598985 C145.185833,51.3562148 145.145433,51.3580566 145.10687,51.3598985 C142.054835,51.451992 142.054835,51.451992 141.634308,48.3189726 C139.680418,50.9049568 137.127875,52.0487576 134.044622,51.9235105 C131.001769,51.7982634 128.379444,50.8220727 126.691826,47.6964208 C126.691826,48.7739142 126.655099,49.5419737 126.704681,50.3008238 C126.743245,50.9067987 126.56879,51.2512282 125.951772,51.3912103 C124.444119,51.7319561 122.918102,51.8829893 121.395757,51.6048671 C118.262923,51.0375714 116.646924,48.8439053 116.623051,45.1564833 C116.601015,41.4930056 116.586324,37.8295279 116.641415,34.1678921 C116.654269,33.2303807 116.375142,33.0277751 115.469815,32.9817283 C114.39738,32.930156 113.223944,33.5048192 112.228635,32.6299313 C112.186399,32.5912521 111.956854,32.7386016 111.835654,32.8288532 C111.61529,32.9946214 111.413291,33.1824921 111.203945,33.3593115 C110.631,33.8381975 110.120491,34.5602102 109.466746,34.7296621 C108.710165,34.9267421 108.445729,33.8713511 107.859929,33.4735074 C105.957458,32.1823571 103.961332,31.8968674 101.827478,32.7386016 C100.786261,33.1493384 100.174752,33.915556 100.16557,35.0777754 C100.156388,36.2068412 100.780752,36.8625466 101.768715,37.3119627 C103.212096,37.9676681 104.776677,38.1831668 106.265966,38.6638946 C107.121711,38.9420168 107.992147,39.2035623 108.807492,39.5774617 C111.001945,40.5849641 112.436144,42.1855484 112.472872,44.7365371 C112.507763,47.3906705 111.462872,49.4701408 109.090292,50.7741841 C105.020913,53.0120551 98.7827893,52.0911205 95.5195732,48.7831236 C95.3341006,48.5952529 95.1578098,48.4000148 94.7391191,47.9561244 C94.7391191,48.9212638 94.6968828,49.6045972 94.7501373,50.2787213 C94.8107373,51.0633576 94.5995556,51.4501501 93.725447,51.3746335 C92.9064293,51.3046424 92.0727208,51.3120099 91.2537031,51.3746335 C90.5026308,51.4298895 90.3373582,51.1370323 90.3428673,50.4297546 C90.3759218,46.806798 90.3502128,43.1819996 90.3649037,39.559043 C90.3685764,38.5699593 90.2969582,37.5919268 90.1243402,36.6212617 C89.8158313,34.8972722 89.0592499,33.4293025 87.3312328,32.8288532 C85.4507976,32.1749897 83.6070897,32.3647022 82.0057816,33.6853223 C80.1510555,35.2122319 79.596474,37.3138045 79.5707649,39.5885129 C79.5322013,43.1322691 79.535874,46.6778672 79.576274,50.2216234 C79.5872922,51.0467807 79.4550741,51.4943549 78.5038383,51.3691078 C77.4295663,51.2272839 76.0394399,51.8406263 75.3397857,51.1112462 C74.7007316,50.4463314 75.1616586,49.0833483 75.148804,48.0297991 C75.082695,42.1247667 75.2681676,36.2160505 75.0239314,30.3110181 C74.9908769,29.5061213 75.2369494,29.242734 75.9953672,29.3366693 C77.0292392,29.4637583 78.334893,28.8706764 79.0437289,29.609266 C79.6901285,30.2833901 79.1888015,31.5708566 79.4110014,32.8306951" id="Fill-25" fill="#000000" mask="url(#mask-2)"></path>
                <path d="M27.5120413,40.3479857 C27.5192973,37.0881626 26.0880392,34.4455623 23.6373044,33.1907891 C19.8605244,31.2596581 15.3726504,33.0355594 13.7382225,37.1103383 C11.9550454,41.5528636 14.0846995,46.6107637 18.2986572,47.9394557 C23.118496,49.4603369 27.4993432,45.8512471 27.5120413,40.3479857 M13.4116998,32.4885596 C17.1358733,28.5893382 21.4949523,27.6542642 25.8141229,29.6888817 C29.9301238,31.6274046 32.431651,36.3896291 31.9382388,41.3477387 C31.4194304,46.5627164 28.6929653,50.319644 24.3792367,51.5004983 C20.2523517,52.6296093 16.5445043,51.9403157 13.6438937,48.4458001 C13.5804032,48.3700333 13.4697483,48.3367698 13.2774626,48.2203475 C13.2665785,48.4494961 13.2665785,48.5917899 13.2520664,48.7322358 C13.1649937,49.5786071 13.6457078,50.8777316 13.0380126,51.184495 C11.9713716,51.722255 10.6163021,51.3415727 9.3809576,51.3489646 C9.07257499,51.3508125 9.0272246,51.1068802 9.02541059,50.853708 C9.02359657,50.6171675 9.02178256,50.3787791 9.02178256,50.1422387 C9.02178256,37.5427638 9.03085263,24.9451369 9.00001437,12.345662 C8.99820036,11.3976522 9.16690379,10.9707706 10.1809384,11.1001287 C11.2076711,11.2331827 12.5554845,10.6695511 13.203088,11.3218853 C13.8525055,11.9760675 13.3990017,13.3472629 13.4026297,14.4006071 C13.4207698,20.3603177 13.4116998,26.3200282 13.4116998,32.4885596" id="Fill-26" fill="#000000" mask="url(#mask-2)"></path>
                <path d="M43.8970979,38.5754238 C45.6131174,38.5754238 47.3309663,38.5754238 49.0488152,38.5754238 C50.4410229,38.5754238 50.5233479,38.4734003 50.2269778,37.1361627 C49.553742,34.0736336 47.3016952,32.3957101 44.0105235,32.5031993 C40.9187613,32.6052228 38.0501915,34.964518 37.6184424,37.7155108 C37.5123346,38.3932389 37.7080852,38.6027516 38.3941271,38.5881768 C40.2290605,38.5499179 42.0639939,38.5754238 43.8970979,38.5754238 Z M55,41.8839026 C49.4531226,41.8747934 43.9062451,41.8839026 38.3593677,41.8347127 C37.3312196,41.8256035 37.5397763,42.3921987 37.6477136,42.9533283 C38.2477715,46.0686911 41.4602771,48.4243426 44.8410916,48.2913475 C47.0839912,48.2057206 48.9280718,47.3203017 50.3586979,45.6278035 C50.7758113,45.1322604 51.0721814,45.0193057 51.5478372,45.4929866 C51.8222539,45.7662641 52.1497246,45.9867079 52.4552419,46.2326575 C54.0944247,47.5516766 54.0944247,47.5516766 52.5997681,48.9945815 C49.306767,52.1773527 43.4635194,52.9388858 39.014309,50.7654192 C34.9511115,48.7814251 32.6295457,44.301497 33.0484887,39.4972797 C33.8827156,29.8924888 43.5238911,27.044938 49.6818032,30.2750772 C52.9510215,31.9912595 54.3468881,34.9499432 54.7566838,38.4570036 C54.8902333,39.5993033 54.9085277,40.7561778 54.9798761,41.9075867 L55,41.8839026 Z" id="Fill-27" fill="#000000" mask="url(#mask-2)"></path>
                <path d="M63.2196699,48.5134595 C67.2648591,48.531716 69.6039523,45.9137355 69.6245528,41.6563223 C69.6282984,40.9954374 69.2237794,40.9990887 68.7612046,41.0228222 C67.3659888,41.0940225 65.963282,41.106802 64.5774302,41.2601565 C62.9911917,41.4372445 61.4105714,41.6983123 60.0490656,42.6275675 C58.0583082,43.9876759 58.1407102,46.6586003 60.2157424,47.8671798 C61.1427649,48.4075719 62.1709172,48.5098082 63.2196699,48.5134595 M54.7397548,41.9374723 C57.9796517,38.340944 62.419996,38.1857638 66.8247575,37.9374756 C67.3041873,37.9100908 67.7911083,37.8644496 68.2649198,37.9155678 C69.3492552,38.0324093 69.7313009,37.7330029 69.5346597,36.5737159 C69.186324,34.5052557 68.0607875,33.2218245 65.8733889,32.7781919 C63.1073036,32.2177177 60.6277524,32.8859051 58.4403538,34.5618508 C57.8747764,34.9981809 57.5451684,35.0766838 57.1425223,34.4596145 C56.9514995,34.165685 56.6949296,33.9100942 56.4627058,33.6417238 C55.2285485,32.2067638 55.2060752,32.1720764 56.790441,31.1935286 C60.1707959,29.101335 63.8526671,28.5006965 67.727434,29.413521 C71.6808573,30.3427763 73.8476554,33.344143 73.8832381,37.6928386 C73.916948,41.7512561 73.9263119,45.8114992 73.9918589,49.8699166 C74.0180777,51.4271951 74.0742609,51.4253695 72.4692947,51.4271951 C70.0534178,51.4271951 70.0534178,51.4271951 69.7593925,49.0447233 C69.7406647,48.8931945 69.7107004,48.7453169 69.6582627,48.4240027 C67.6300498,50.9835624 65.0231501,52.0844287 61.8656552,51.9949719 C60.8187752,51.9639359 59.790623,51.7886736 58.7980534,51.4837902 C54.9176682,50.2989441 53.0505138,46.5161996 54.4775666,42.7882246 C54.5880602,42.5034234 54.6685895,42.2058426 54.7603553,41.9137388 C54.7603553,41.9155645 54.7397548,41.9374723 54.7397548,41.9374723" id="Fill-28" fill="#000000" mask="url(#mask-2)"></path>
                <path d="M159.625272,37.9240965 C161.367635,36.2963644 163.305589,34.4861511 165.239953,32.6722882 C165.408627,32.5135295 165.553973,32.3310484 165.715469,32.1631657 C169.12842,28.6339797 169.12842,28.6339797 174.195809,29.1485766 C174.124033,29.5755826 173.774125,29.774487 173.526498,30.0190118 C170.831307,32.6795874 168.155855,35.3620607 165.406832,37.9624175 C164.588586,38.7397874 164.523987,39.179567 165.342234,40.042703 C168.451931,43.3237146 171.473703,46.6959668 174.520596,50.039022 C174.714391,50.2507002 175.039178,50.3912107 174.996112,50.872961 C173.248365,50.872961 171.498824,50.8638369 169.751078,50.8766106 C169.245056,50.8802602 169.013579,50.5116482 168.74083,50.1959558 C165.995396,46.9934111 163.255345,43.785392 160.504529,40.5901465 C160.265873,40.3145999 160.111555,39.9222654 159.553496,39.8054775 L159.553496,44.8200603 C159.553496,46.5353833 159.521197,48.2525312 159.569646,49.9660295 C159.589384,50.6941294 159.361495,50.9496031 158.656295,50.8839098 C157.595804,50.7871948 156.239237,51.3236895 155.541215,50.6704069 C154.886259,50.0590949 155.345625,48.6795372 155.342036,47.6393945 C155.320504,42.7653222 155.33127,37.8894251 155.33127,33.0171776 C155.33127,32.6649889 155.428168,32.2617055 155.293588,31.9715604 C154.191825,29.5719329 156.483276,28.6850744 157.355355,27.1814295 C157.62272,26.7179273 157.850609,27.2653708 157.99775,27.4642753 C159.128223,28.9752195 159.618094,30.7069659 159.623478,32.5901716 C159.628861,34.4989248 159.625272,36.4058531 159.625272,37.9240965" id="Fill-29" fill="#000000" mask="url(#mask-2)"></path>
                <path d="M148.135766,40.8698162 C148.135766,38.1323431 148.168908,35.39487 148.126559,32.6573968 C148.091575,30.5310975 148.752585,28.6701282 150.065398,27.0177631 C151.527353,25.1750923 152.954323,23.3049737 154.475198,21.5135391 C155.266937,20.5821395 155.572585,19.5702259 155.563378,18.3936249 C155.544966,16.2435374 155.583632,14.09162 155.543124,11.9415325 C155.530236,11.2443552 155.69779,10.9515773 156.454545,11.0064732 C157.354917,11.0705183 158.264496,11.0503899 159.168551,11.0119628 C159.766958,10.9863447 160.015527,11.1693309 159.997114,11.7988033 C159.919782,14.5326167 160.124161,17.2719196 159.857179,20.0039032 C159.724609,21.3525112 159.266137,22.5803484 158.406272,23.6526474 C156.811748,25.6398772 155.241159,27.6435758 153.637428,29.6234861 C152.862261,30.5768441 152.50874,31.623525 152.514264,32.8623414 C152.545565,38.4928258 152.503217,44.1233103 152.551089,49.7537947 C152.560295,50.703493 152.276742,50.9871215 151.367164,50.8956284 C150.356316,50.7931562 149.049027,51.3000279 148.395382,50.7053228 C147.668087,50.0429129 148.170749,48.7089437 148.150496,47.673242 C148.104464,45.4060433 148.135766,43.1370148 148.135766,40.8698162" id="Fill-30" fill="#000000" mask="url(#mask-2)"></path>
                <path d="M148.01613,15.6538228 C148.01613,14.4585886 148.052286,13.2633543 148.002809,12.0699229 C147.974264,11.350619 148.153144,11.0098961 149.00758,11.0765985 C150.136045,11.1649341 151.612754,10.7412839 152.313049,11.2749028 C153.057113,11.8427743 152.472899,13.2976069 152.554727,14.3612392 C152.712674,16.4218013 152.179841,18.5238271 152.963867,20.5465312 C153.09327,20.8836486 152.845883,21.0477003 152.682227,21.2478074 C152.035215,22.0392219 151.35395,22.8053977 150.725968,23.6112344 C150.341566,24.1069952 150.097985,24.146656 149.658398,23.6256565 C148.510904,22.2645677 148.073219,20.6979636 148.021839,19.0069686 C147.989488,17.8910561 148.01613,16.771538 148.01613,15.6538228" id="Fill-31" fill="#000000" mask="url(#mask-2)"></path>
                <path d="M94.0194361,65.2216095 C94.0194361,64.6798948 94.0073152,64.1362243 94.0234763,63.5945096 C94.0315569,63.2776944 94.1507456,63.0234601 94.5446741,63.0097705 C95.0234488,62.9902141 95.1123352,63.2816057 95.1123352,63.6570903 C95.1103151,64.5742897 95.1163755,65.4934447 95.1143554,66.4106441 C95.1103151,67.2985087 95.3244506,67.9966754 96.447652,68.0103649 C97.5506519,68.0240545 97.8354925,67.3728234 97.8314522,66.4634466 C97.8274119,65.5462472 97.8375127,64.6270922 97.8314522,63.7079372 C97.8294321,63.2776944 97.9344797,62.9726132 98.4799192,63.0019479 C98.9708148,63.0273714 99.0071774,63.3520091 98.9990968,63.7020703 C98.9728349,64.8265684 99.0253587,65.9608448 98.8839485,67.0736091 C98.7021353,68.4855876 97.7829687,69.0859719 96.2254359,68.9901451 C94.8678975,68.9080078 94.1325642,68.2117968 94.0214562,66.8487094 C93.977013,66.3089503 94.0153958,65.7633243 94.0153958,65.2216095 L94.0194361,65.2216095 Z" id="Fill-32" fill="#000000" mask="url(#mask-2)"></path>
                <path d="M77.000483,62 C78.4050236,63.3049371 79.6125036,64.42788 81.0614795,65.7773475 C81.0614795,64.6118103 81.0576155,63.7657309 81.0653434,62.9177154 C81.0672754,62.5498548 81.0209081,62.1142304 81.5889067,62.1471442 C82.0931503,62.1761859 81.990756,62.5905131 81.992688,62.8964182 C82.0042798,64.5421104 81.9984839,66.1878025 81.9984839,68 C80.4683653,66.9583737 79.523633,65.4501452 77.9973784,64.5130687 C77.6399644,65.4424008 77.8988481,66.3484995 77.8138415,67.2255566 C77.7848619,67.5237173 77.7867939,67.8334947 77.3656249,67.8063892 C77.0352584,67.7831559 77.0043469,67.5198451 77.002415,67.268151 C76.998551,65.5972894 77.000483,63.9244918 77.000483,62" id="Fill-33" fill="#000000" mask="url(#mask-2)"></path>
                <path d="M112.000775,64.9997171 C111.999031,64.8337271 112.000775,64.6677371 112.000775,64.5017471 C112.000775,61.9103508 112.108921,61.8068511 114.427088,62.1310198 C114.690477,62.1681234 114.967819,62.1525008 114.997472,62.5547824 C115.030614,63.02346 114.73234,63.0195543 114.425344,63.1074314 C113.938686,63.2460818 113.066539,62.5996974 113.043863,63.7225707 C113.017699,64.878642 113.910777,64.2322575 114.390458,64.3748136 C114.681755,64.4607379 115.013171,64.4060588 114.997472,64.8884061 C114.981774,65.3766119 114.646869,65.3395083 114.350339,65.3453668 C114.09044,65.3531781 113.83054,65.3629422 113.57064,65.3512252 C113.118868,65.331697 112.993279,65.618762 113.01421,66.0601001 C113.031653,66.4662873 112.954904,66.9427761 113.513078,66.9740213 C113.846238,66.9935495 114.181143,66.9857382 114.514303,67.0072193 C114.8056,67.0267475 115.01666,67.1634452 114.997472,67.54034 C114.98003,67.8488861 114.788157,67.9816781 114.550933,67.9875365 C113.882869,68.005112 113.214804,68.0012063 112.546739,67.993395 C112.107177,67.9875365 111.995542,67.6750848 112.000775,67.2435109 C112.006008,66.4955796 112.000775,65.7476483 112.000775,64.9997171" id="Fill-34" fill="#000000" mask="url(#mask-2)"></path>
                <path d="M105.039039,63.5635498 C105.063063,63.8302311 104.960961,64.2076102 105.571572,64.164002 C105.995996,64.1354889 106.29029,63.976151 106.312312,63.5887084 C106.332332,63.1710755 106.092092,62.9312301 105.581582,62.896008 C104.982983,62.8557542 105.053053,63.2146837 105.039039,63.5635498 M108,66.9599622 C106.17017,67.1293635 106.15015,65.6936455 105.003003,65.1200292 L105.003003,66.4886576 C105.003003,66.7637251 104.924925,66.9800891 104.522523,66.9985388 C104.12012,67.0186657 104,66.8291375 104,66.5372976 C104,65.2122774 104,63.8889345 104,62.5639143 C104,62.3827723 104.028028,62.2100165 104.238238,62.1009959 C104.736737,61.8410236 106.628629,62.1160911 107.015015,62.5488192 C107.563564,63.161012 107.655656,63.9577014 106.996997,64.4055246 C106.164164,64.9690775 106.524525,65.2894305 106.972973,65.7540262 C107.291291,66.0810881 107.561562,66.4416949 108,66.9599622" id="Fill-35" fill="#000000" mask="url(#mask-2)"></path>
                <path d="M120.345701,67.9986166 C120.106746,68.0121333 119.806073,67.9271713 119.551293,67.7186285 C119.244291,67.4695356 118.828097,67.1451355 119.074964,66.6623974 C119.312337,66.1951069 119.63833,66.5677807 119.926342,66.8130117 C120.293479,67.127757 120.719168,67.1779617 120.975531,66.6353641 C121.241389,66.069595 120.951794,65.7239544 120.54193,65.4709997 C120.21119,65.2663187 119.870955,65.0674306 119.578195,64.7951663 C119.184156,64.4282853 118.967355,63.9416852 119.082877,63.2890232 C119.204728,62.605466 119.524391,62.1690707 120.081426,62.0609374 C120.619471,61.956666 121.170177,61.9257707 121.594283,62.4780232 C121.703475,62.6189827 121.845899,62.7946994 121.697145,63.0090351 C121.529401,63.2504042 121.318931,63.3488828 121.068898,63.1789589 C120.693848,62.9260042 120.247587,62.7039446 120.037116,63.3179875 C119.793413,64.0285781 120.366274,64.2023638 120.741323,64.4282853 C121.510411,64.8955758 122.205123,65.4497592 121.944013,66.6739831 C121.754114,67.5699451 121.189167,68.0005475 120.345701,67.9986166" id="Fill-36" fill="#000000" mask="url(#mask-2)"></path>
                <path d="M70.0016162,64.9479473 L70.0016162,64.3238427 C70.0016162,62.0322083 70.3216334,61.7572122 72.4744759,62.1472776 C72.7690371,62.2018868 73.0108683,62.250645 72.9981403,62.6465614 C72.9872306,63.0463784 72.716307,63.0366268 72.4435652,63.1185405 C71.9362653,63.270666 71.0362171,62.6251078 70.983487,63.6977877 C70.9198472,64.9908545 71.9399018,64.2029224 72.4544748,64.3901538 C72.7199436,64.4857198 72.9945038,64.4720675 72.9999586,64.8718846 C73.0035952,65.267801 72.7672189,65.351665 72.4653845,65.3536153 C72.1562771,65.357516 71.843533,65.3770193 71.5344256,65.3594663 C70.9543945,65.3243604 70.9398483,65.7241775 70.9471214,66.1727527 C70.9562128,66.6349802 70.8852999,67.0679529 71.5544267,67.116711 C72.0308158,67.1498666 72.9254092,66.7363972 72.9163178,67.4794719 C72.9035898,68.3220132 71.9853588,67.8851399 71.4907869,67.8987922 C69.8106969,67.9416994 70.0216173,68.1172288 70.0016162,66.3209776 C69.9979797,65.8626507 70.0016162,65.4062742 70.0016162,64.9479473" id="Fill-37" fill="#000000" mask="url(#mask-2)"></path>
                <path d="M63.5757383,66.2755956 C64.1060099,65.6579328 64.2375958,64.8081547 64.604858,64.0803354 C64.8523181,63.5885657 64.9406967,62.7132156 65.7243203,63.0928618 C66.37243,63.4075944 65.6948607,63.9603436 65.5416712,64.3537594 C64.9485526,65.8723444 64.2827671,67.3633903 63.5875221,69 C62.8804933,68.2584112 62.7469434,67.3476536 62.3855731,66.5608221 C61.9809956,65.687439 61.5999856,64.8002864 61.2425432,63.9052654 C61.1384529,63.645611 60.7476231,63.2836685 61.2523631,63.0653227 C61.637301,62.9000881 61.9868875,63.0554873 62.1616807,63.4862776 C62.4759157,64.2632738 62.7881868,65.04027 63.1200975,65.8093979 C63.1947283,65.9844679 63.2359717,66.2224845 63.5757383,66.2755956" id="Fill-38" fill="#000000" mask="url(#mask-2)"></path>
                <path d="M87.4774244,65.9179962 C87.4774244,65.5256411 87.4558992,65.133286 87.4813381,64.7426077 C87.5204749,64.1825795 87.4558992,63.7332155 86.5851056,63.8153754 C86.2680976,63.8455565 85.9980537,63.7516596 86.0000106,63.4163133 C86.0000106,63.000484 86.3561554,63.0021608 86.6986023,63.000484 C87.5713527,62.9988073 88.44606,63.0021608 89.3188104,63.000484 C89.6749552,62.9988073 90.0095748,63.0239583 89.9997906,63.4330807 C89.9919632,63.7701036 89.7082215,63.8438798 89.3951272,63.8187288 C88.6026072,63.7533363 88.5302041,64.160782 88.5478157,64.6872755 C88.5732546,65.470309 88.5810819,66.2566959 88.5419451,67.0380526 C88.5223767,67.4102869 88.8159027,68.0306774 87.9920732,67.9988195 C87.2112942,67.9686384 87.5341728,67.3650151 87.4872086,66.9860739 C87.4441582,66.6339604 87.4774244,66.2751399 87.4774244,65.9179962" id="Fill-39" fill="#000000" mask="url(#mask-2)"></path>
                <polygon id="Fill-40" fill="#000000" mask="url(#mask-2)" points="655.028969 28 655.028969 24.8996212 654 24.8996212 654 24 657 24 657 24.8996212 655.976246 24.8996212 655.976246 28"></polygon>
                <polygon id="Fill-41" fill="#000000" mask="url(#mask-2)" points="661.092199 28 661.092199 25.3958333 660.199416 28 659.797247 28 658.90947 25.3958333 658.90947 28 658 28 658 24 659.263246 24 659.999166 26.1704545 660.736754 24 662 24 662 28"></polygon>
                <path d="M459.129478,49.4890116 C461.640795,49.4890116 463.534575,47.6661321 463.534575,44.7090164 C463.534575,41.7924091 461.640795,39.9695296 459.129478,39.9695296 C457.769025,39.9695296 456.124131,40.6986814 455.341918,41.7500594 L455.341918,47.747149 C456.124131,48.8003683 457.769025,49.4890116 459.129478,49.4890116 Z M449,54.5138988 L449,24 L455.341918,24 L455.341918,37.2536232 C456.906345,35.3092183 459.04714,34.4585412 461.229104,34.4585412 C466.210569,34.4585412 470,38.3068425 470,44.7090164 C470,51.3523996 466.12823,55 461.229104,55 C459.00597,55 456.986812,54.1088144 455.341918,52.2454265 L455.341918,54.5138988 L449,54.5138988 Z" id="Fill-42" fill="#000000" mask="url(#mask-2)"></path>
                <path d="M475,55 L475,35.52593 L481.058999,35.52593 L481.058999,37.9045263 C482.31764,36.3304013 484.756257,35 487,35 L487,40.9684809 C486.646007,40.8475353 486.134684,40.8072201 485.503576,40.8072201 C483.930274,40.8072201 481.84565,41.4925783 481.058999,42.5810885 L481.058999,55 L475,55 Z" id="Fill-43" fill="#000000" mask="url(#mask-2)"></path>
                <path d="M504.9875,47.9000448 L504.9875,42.0999552 C504.203571,41.0744061 502.632143,40.4038548 501.333929,40.4038548 C498.9375,40.4038548 497.169643,42.1411923 497.169643,44.9811744 C497.169643,47.8211564 498.9375,49.6355894 501.333929,49.6355894 C502.632143,49.6355894 504.203571,48.9255939 504.9875,47.9000448 Z M504.9875,54.5266697 L504.9875,52.3177947 C503.416071,54.1340206 501.491071,55 499.369643,55 C494.692857,55 491,51.4500224 491,44.9811744 C491,38.7471986 494.614286,35 499.369643,35 C501.453571,35 503.457143,35.8283281 504.95,37.7216495 L504.95,35.4733303 L511,35.4733303 L511,54.5266697 L504.9875,54.5266697 Z" id="Fill-44" fill="#000000" mask="url(#mask-2)"></path>
                <path d="M517.905421,54 L524.054661,54 L524.054661,34.760968 L517.905421,34.760968 L517.905421,54 Z M517,27.9683785 C517,25.7597007 518.763665,24 520.975505,24 C523.190973,24 525,25.7597007 525,27.9683785 C525,30.1770563 523.190973,31.9802064 520.975505,31.9802064 C518.763665,31.9802064 517,30.1770563 517,27.9683785 Z" id="Fill-45" fill="#000000" mask="url(#mask-2)"></path>
                <path d="M603.905626,54 L610.056261,54 L610.056261,34.760968 L603.905626,34.760968 L603.905626,54 Z M603,27.9683785 C603,25.7597007 604.76225,24 606.976407,24 C609.192377,24 611,25.7597007 611,27.9683785 C611,30.1770563 609.192377,31.9802064 606.976407,31.9802064 C604.76225,31.9802064 603,30.1770563 603,27.9683785 Z" id="Fill-46" fill="#000000" mask="url(#mask-2)"></path>
                <path d="M543.914399,55 L543.914399,43.7275064 C543.914399,41.3441058 542.690098,40.4957767 540.796202,40.4957767 C538.977702,40.4957767 537.792895,41.5056923 537.082011,42.3944179 L537.082011,55 L531,55 L531,35.4865957 L537.082011,35.4865957 L537.082011,37.8699963 C538.227324,36.4965112 540.478458,35 543.718726,35 C548.023526,35 550,37.58722 550,41.1825193 L550,55 L543.914399,55 Z" id="Fill-47" fill="#000000" mask="url(#mask-2)"></path>
                <path d="M591.917415,54 L591.917415,42.8063484 C591.917415,40.4564601 590.691203,39.6997164 588.755835,39.6997164 C586.978456,39.6997164 585.793537,40.6954318 585.082585,41.5716613 L585.082585,54 L579,54 L579,24 L585.082585,24 L585.082585,37.1108563 C586.228007,35.7566834 588.481149,34.2812142 591.678636,34.2812142 C596.025135,34.2812142 598,36.7523988 598,40.2971456 L598,54 L591.917415,54 Z" id="Fill-48" fill="#000000" mask="url(#mask-2)"></path>
                <polygon id="Fill-49" fill="#000000" mask="url(#mask-2)" points="617 54 623 54 623 24 617 24"></polygon>
                <path d="M642.9875,47.7080487 L642.9875,41.7106029 C642.203571,40.6573211 640.630357,39.9686368 639.333929,39.9686368 C636.935714,39.9686368 635.169643,41.793466 635.169643,44.7102465 C635.169643,47.627027 636.935714,49.4905257 639.333929,49.4905257 C640.630357,49.4905257 642.203571,48.7613306 642.9875,47.7080487 Z M642.9875,54.5138699 L642.9875,52.2452628 C641.416071,54.1106029 639.491071,55 637.369643,55 C632.692857,55 629,51.3540244 629,44.7102465 C629,38.3076923 632.614286,34.4591625 637.369643,34.4591625 C639.451786,34.4591625 641.494643,35.3098901 642.9875,37.2544105 L642.9875,24 L649,24 L649,54.5138699 L642.9875,54.5138699 Z" id="Fill-50" fill="#000000" mask="url(#mask-2)"></path>
                <path d="M569.874516,47.7805665 C569.091647,48.8454643 567.814334,49.6342775 566.124984,49.6342775 C563.487951,49.6342775 561.468972,47.8594478 561.468972,44.9802797 C561.468972,42.1011115 563.487951,40.3657225 566.124984,40.3657225 C567.814334,40.3657225 569.091647,41.0756544 569.874516,42.1799928 L570,42.0688419 L570,35.6615274 C568.840679,35.2545715 567.456611,35 565.838432,35 C559.614808,35 555,39.0247401 555,44.9802797 C555,50.9358193 559.614808,55 565.838432,55 C567.456611,55 568.840679,54.7400502 570,54.327716 L570,47.8917175 L569.874516,47.7805665 Z" id="Fill-51" fill="#000000" mask="url(#mask-2)"></path>
                <polygon id="Fill-52" fill="#000000" mask="url(#mask-2)" points="470 228 472 228 472 169 470 169"></polygon>
                <path d="M285.52,194.854651 L285.52,191.924419 C285.52,191.082717 285.352727,190.5074 285.02,190.194767 C284.685455,189.882135 284.107273,189.726744 283.28,189.726744 L271.44,189.726744 L271.44,197.052326 L283.28,197.052326 C284.107273,197.052326 284.685455,196.896934 285.02,196.584302 C285.352727,196.27352 285.52,195.696353 285.52,194.854651 Z M289,195.75 C289,197.215116 288.645455,198.260307 287.94,198.883721 C287.232727,199.508985 286.134545,199.819767 284.64,199.819767 L271.44,199.819767 L271.44,208 L268,208 L268,187 L284.64,187 C286.134545,187 287.232727,187.312632 287.94,187.936047 C288.645455,188.561311 289,189.604651 289,191.069767 L289,195.75 Z" id="Fill-53" fill="#000000" mask="url(#mask-2)"></path>
                <path d="M285.52,194.854651 L285.52,191.924419 C285.52,191.082717 285.352727,190.5074 285.02,190.194767 C284.685455,189.882135 284.107273,189.726744 283.28,189.726744 L271.44,189.726744 L271.44,197.052326 L283.28,197.052326 C284.107273,197.052326 284.685455,196.896934 285.02,196.584302 C285.352727,196.27352 285.52,195.696353 285.52,194.854651 Z M289,195.75 C289,197.215116 288.645455,198.260307 287.94,198.883721 C287.232727,199.508985 286.134545,199.819767 284.64,199.819767 L271.44,199.819767 L271.44,208 L268,208 L268,187 L284.64,187 C286.134545,187 287.232727,187.312632 287.94,187.936047 C288.645455,188.561311 289,189.604651 289,191.069767 L289,195.75 Z" id="Stroke-54" stroke="#000000" stroke-width="0.25" mask="url(#mask-2)"></path>
                <polygon id="Fill-55" fill="#000000" mask="url(#mask-2)" points="313 208 296 208 296 191 312.842227 191 312.842227 193.525943 299.155452 193.525943 299.155452 197.896226 307.400865 197.896226 307.400865 200.42217 299.155452 200.42217 299.155452 205.514151 313 205.514151"></polygon>
                <polygon id="Stroke-56" stroke="#000000" stroke-width="0.25" mask="url(#mask-2)" points="313 208 296 208 296 191 312.842227 191 312.842227 193.525943 299.155452 193.525943 299.155452 197.896226 307.400865 197.896226 307.400865 200.42217 299.155452 200.42217 299.155452 205.514151 313 205.514151"></polygon>
                <polygon id="Fill-57" fill="#000000" mask="url(#mask-2)" points="335 193.525943 327.060291 193.525943 327.060291 208 323.900208 208 323.900208 193.525943 316 193.525943 316 191 335 191"></polygon>
                <polygon id="Stroke-58" stroke="#000000" stroke-width="0.25" mask="url(#mask-2)" points="335 193.525943 327.060291 193.525943 327.060291 208 323.900208 208 323.900208 193.525943 316 193.525943 316 191 335 191"></polygon>
                <polygon id="Fill-59" fill="#000000" mask="url(#mask-2)" points="357 208 340 208 340 191 356.842227 191 356.842227 193.525943 343.15366 193.525943 343.15366 197.896226 351.399072 197.896226 351.399072 200.42217 343.15366 200.42217 343.15366 205.514151 357 205.514151"></polygon>
                <polygon id="Stroke-60" stroke="#000000" stroke-width="0.25" mask="url(#mask-2)" points="357 208 340 208 340 191 356.842227 191 356.842227 193.525943 343.15366 193.525943 343.15366 197.896226 351.399072 197.896226 351.399072 200.42217 343.15366 200.42217 343.15366 205.514151 357 205.514151"></polygon>
                <path d="M376.129237,197.254717 L376.129237,195.209906 C376.129237,194.06175 375.525424,193.485849 374.319626,193.485849 L365.222169,193.485849 L365.222169,198.978774 L374.319626,198.978774 C375.016757,198.978774 375.492488,198.86578 375.746822,198.637972 C376.002985,198.411985 376.129237,197.949078 376.129237,197.254717 Z M381,208 L376.694626,208 L369.889831,201.34434 L365.222169,201.34434 L365.222169,208 L362,208 L362,191 L375.728525,191 C378.116333,191 379.309322,192.095304 379.309322,194.287736 L379.309322,198.096698 C379.309322,199.727809 378.690871,200.742925 377.459457,201.143868 C377.002022,201.278731 375.673633,201.34434 373.474287,201.34434 L381,208 Z" id="Fill-61" fill="#000000" mask="url(#mask-2)"></path>
                <path d="M376.129237,197.254717 L376.129237,195.209906 C376.129237,194.06175 375.525424,193.485849 374.319626,193.485849 L365.222169,193.485849 L365.222169,198.978774 L374.319626,198.978774 C375.016757,198.978774 375.492488,198.86578 375.746822,198.637972 C376.002985,198.411985 376.129237,197.949078 376.129237,197.254717 Z M381,208 L376.694626,208 L369.889831,201.34434 L365.222169,201.34434 L365.222169,208 L362,208 L362,191 L375.728525,191 C378.116333,191 379.309322,192.095304 379.309322,194.287736 L379.309322,198.096698 C379.309322,199.727809 378.690871,200.742925 377.459457,201.143868 C377.002022,201.278731 375.673633,201.34434 373.474287,201.34434 L381,208 Z" id="Stroke-62" stroke="#000000" stroke-width="0.25" mask="url(#mask-2)"></path>
                <path d="M405,203.990566 C405,205.568825 404.700948,206.631325 404.102845,207.178066 C403.501026,207.72663 402.39955,208 400.790986,208 L390.249878,208 C388.477857,208 387.326229,207.693825 386.794995,207.07783 C386.265617,206.463658 386,205.273585 386,203.509434 L388.983087,202.908019 L388.983087,205.433962 L402.057777,205.433962 L402.057777,200.662736 L390.901848,200.662736 C388.884642,200.662736 387.632711,200.196184 387.144198,199.259434 C386.843289,198.698113 386.694692,197.294811 386.694692,195.049528 C386.694692,193.473092 386.993743,192.403302 387.593704,191.841981 C388.191808,191.28066 389.295141,191 390.901848,191 L400.547659,191 C402.208231,191 403.331997,191.28795 403.918956,191.862028 C404.5022,192.437929 404.797536,193.525943 404.797536,195.129717 L401.812592,195.771226 L401.812592,193.525943 L389.675921,193.525943 L389.675921,197.936321 L400.790986,197.936321 C402.39955,197.936321 403.501026,198.211514 404.102845,198.758255 C404.700948,199.306818 405,200.369318 405,201.945755 L405,203.990566 Z" id="Fill-63" fill="#000000" mask="url(#mask-2)"></path>
                <path d="M405,203.990566 C405,205.568825 404.700948,206.631325 404.102845,207.178066 C403.501026,207.72663 402.39955,208 400.790986,208 L390.249878,208 C388.477857,208 387.326229,207.693825 386.794995,207.07783 C386.265617,206.463658 386,205.273585 386,203.509434 L388.983087,202.908019 L388.983087,205.433962 L402.057777,205.433962 L402.057777,200.662736 L390.901848,200.662736 C388.884642,200.662736 387.632711,200.196184 387.144198,199.259434 C386.843289,198.698113 386.694692,197.294811 386.694692,195.049528 C386.694692,193.473092 386.993743,192.403302 387.593704,191.841981 C388.191808,191.28066 389.295141,191 390.901848,191 L400.547659,191 C402.208231,191 403.331997,191.28795 403.918956,191.862028 C404.5022,192.437929 404.797536,193.525943 404.797536,195.129717 L401.812592,195.771226 L401.812592,193.525943 L389.675921,193.525943 L389.675921,197.936321 L400.790986,197.936321 C402.39955,197.936321 403.501026,198.211514 404.102845,198.758255 C404.700948,199.306818 405,200.369318 405,201.945755 L405,203.990566 Z" id="Stroke-64" stroke="#000000" stroke-width="0.25" mask="url(#mask-2)"></path>
                <path d="M415.268482,205.435785 L429.731518,205.435785 L429.731518,193.527766 L415.268482,193.527766 L415.268482,205.435785 Z M433,203.990566 C433,205.568825 432.701008,206.631325 432.09931,207.178066 C431.501326,207.72663 430.385214,208 428.75283,208 L416.249027,208 C414.614786,208 413.498674,207.733919 412.898833,207.198113 C412.298992,206.66413 412,205.596162 412,203.990566 L412,195.049528 C412,193.473092 412.298992,192.403302 412.898833,191.841981 C413.498674,191.282483 414.614786,191 416.249027,191 L428.75283,191 C430.385214,191 431.501326,191.282483 432.09931,191.841981 C432.701008,192.403302 433,193.473092 433,195.049528 L433,203.990566 Z" id="Fill-65" fill="#000000" mask="url(#mask-2)"></path>
                <path d="M415.268482,205.435785 L429.731518,205.435785 L429.731518,193.527766 L415.268482,193.527766 L415.268482,205.435785 Z M433,203.990566 C433,205.568825 432.701008,206.631325 432.09931,207.178066 C431.501326,207.72663 430.385214,208 428.75283,208 L416.249027,208 C414.614786,208 413.498674,207.733919 412.898833,207.198113 C412.298992,206.66413 412,205.596162 412,203.990566 L412,195.049528 C412,193.473092 412.298992,192.403302 412.898833,191.841981 C413.498674,191.282483 414.614786,191 416.249027,191 L428.75283,191 C430.385214,191 431.501326,191.282483 432.09931,191.841981 C432.701008,192.403302 433,193.473092 433,195.049528 L433,203.990566 Z" id="Stroke-66" stroke="#000000" stroke-width="0.25" mask="url(#mask-2)"></path>
                <path d="M459,208 L456.755102,208 L443.816327,196.733491 C442.944341,195.986278 442.265306,195.209906 441.77551,194.408019 C441.940631,195.424957 442.020408,196.440073 442.020408,197.455189 L442.020408,208 L439,208 L439,191 L441.489796,191 L454.183673,202.106132 C454.972171,202.800493 455.666048,203.576865 456.263451,204.431604 C456.076067,203.416488 455.979592,202.361278 455.979592,201.264151 L455.979592,191 L459,191 L459,208 Z" id="Fill-67" fill="#000000" mask="url(#mask-2)"></path>
                <path d="M459,208 L456.755102,208 L443.816327,196.733491 C442.944341,195.986278 442.265306,195.209906 441.77551,194.408019 C441.940631,195.424957 442.020408,196.440073 442.020408,197.455189 L442.020408,208 L439,208 L439,191 L441.489796,191 L454.183673,202.106132 C454.972171,202.800493 455.666048,203.576865 456.263451,204.431604 C456.076067,203.416488 455.979592,202.361278 455.979592,201.264151 L455.979592,191 L459,191 L459,208 Z" id="Stroke-68" stroke="#000000" stroke-width="0.25" mask="url(#mask-2)"></path>
                <polygon id="Fill-69" fill="#000000" mask="url(#mask-2)" points="504 187 493.182692 208 490.298077 208 479 187 482.72414 187 491.860577 204.5 500.594551 187"></polygon>
                <polygon id="Stroke-70" stroke="#000000" stroke-width="0.25" mask="url(#mask-2)" points="504 187 493.182692 208 490.298077 208 479 187 482.72414 187 491.860577 204.5 500.594551 187"></polygon>
                <polygon id="Fill-71" fill="#000000" mask="url(#mask-2)" points="524 208 507 208 507 191 523.842211 191 523.842211 193.525943 510.153992 193.525943 510.153992 197.896226 518.398481 197.896226 518.398481 200.42217 510.153992 200.42217 510.153992 205.514151 524 205.514151"></polygon>
                <polygon id="Stroke-72" stroke="#000000" stroke-width="0.25" mask="url(#mask-2)" points="524 208 507 208 507 191 523.842211 191 523.842211 193.525943 510.153992 193.525943 510.153992 197.896226 518.398481 197.896226 518.398481 200.42217 510.153992 200.42217 510.153992 205.514151 524 205.514151"></polygon>
                <path d="M550,208 L547.754894,208 L534.814918,196.733491 C533.944707,195.986278 533.263754,195.209906 532.775768,194.408019 C532.939048,195.424957 533.020688,196.440073 533.020688,197.455189 L533.020688,208 L530,208 L530,191 L532.488171,191 L545.183227,202.106132 C545.973652,202.800493 546.667594,203.576865 547.265052,204.431604 C547.075796,203.416488 546.979312,202.361278 546.979312,201.264151 L546.979312,191 L550,191 L550,208 Z" id="Fill-73" fill="#000000" mask="url(#mask-2)"></path>
                <path d="M550,208 L547.754894,208 L534.814918,196.733491 C533.944707,195.986278 533.263754,195.209906 532.775768,194.408019 C532.939048,195.424957 533.020688,196.440073 533.020688,197.455189 L533.020688,208 L530,208 L530,191 L532.488171,191 L545.183227,202.106132 C545.973652,202.800493 546.667594,203.576865 547.265052,204.431604 C547.075796,203.416488 546.979312,202.361278 546.979312,201.264151 L546.979312,191 L550,191 L550,208 Z" id="Stroke-74" stroke="#000000" stroke-width="0.25" mask="url(#mask-2)"></path>
                <polygon id="Fill-75" fill="#000000" mask="url(#mask-2)" points="573 193.525943 565.058496 193.525943 565.058496 208 561.898412 208 561.898412 193.525943 554 193.525943 554 191 573 191"></polygon>
                <polygon id="Stroke-76" stroke="#000000" stroke-width="0.25" mask="url(#mask-2)" points="573 193.525943 565.058496 193.525943 565.058496 208 561.898412 208 561.898412 193.525943 554 193.525943 554 191 573 191"></polygon>
                <path d="M597,203.990566 C597,205.568825 596.704758,206.631325 596.114275,207.178066 C595.520124,207.72663 594.419844,208 592.8061,208 L582.195734,208 C580.58199,208 579.478043,207.72663 578.885725,207.178066 C578.295242,206.631325 578,205.568825 578,203.990566 L578,191 L581.225654,191 L581.225654,205.433962 L593.734003,205.433962 L593.734003,191 L597,191 L597,203.990566 Z" id="Fill-77" fill="#000000" mask="url(#mask-2)"></path>
                <path d="M597,203.990566 C597,205.568825 596.704758,206.631325 596.114275,207.178066 C595.520124,207.72663 594.419844,208 592.8061,208 L582.195734,208 C580.58199,208 579.478043,207.72663 578.885725,207.178066 C578.295242,206.631325 578,205.568825 578,203.990566 L578,191 L581.225654,191 L581.225654,205.433962 L593.734003,205.433962 L593.734003,191 L597,191 L597,203.990566 Z" id="Stroke-78" stroke="#000000" stroke-width="0.25" mask="url(#mask-2)"></path>
                <path d="M618.129237,197.254717 L618.129237,195.209906 C618.129237,194.06175 617.525424,193.485849 616.317797,193.485849 L607.220339,193.485849 L607.220339,198.978774 L616.317797,198.978774 C617.016757,198.978774 617.490659,198.86578 617.746822,198.637972 C618.002985,198.411985 618.129237,197.949078 618.129237,197.254717 Z M623,208 L618.692797,208 L611.889831,201.34434 L607.220339,201.34434 L607.220339,208 L604,208 L604,191 L617.726695,191 C620.114503,191 621.309322,192.095304 621.309322,194.287736 L621.309322,198.096698 C621.309322,199.727809 620.690871,200.742925 619.457627,201.143868 C619.002022,201.278731 617.673633,201.34434 615.472458,201.34434 L623,208 Z" id="Fill-79" fill="#000000" mask="url(#mask-2)"></path>
                <path d="M618.129237,197.254717 L618.129237,195.209906 C618.129237,194.06175 617.525424,193.485849 616.317797,193.485849 L607.220339,193.485849 L607.220339,198.978774 L616.317797,198.978774 C617.016757,198.978774 617.490659,198.86578 617.746822,198.637972 C618.002985,198.411985 618.129237,197.949078 618.129237,197.254717 Z M623,208 L618.692797,208 L611.889831,201.34434 L607.220339,201.34434 L607.220339,208 L604,208 L604,191 L617.726695,191 C620.114503,191 621.309322,192.095304 621.309322,194.287736 L621.309322,198.096698 C621.309322,199.727809 620.690871,200.742925 619.457627,201.143868 C619.002022,201.278731 617.673633,201.34434 615.472458,201.34434 L623,208 Z" id="Stroke-80" stroke="#000000" stroke-width="0.25" mask="url(#mask-2)"></path>
                <polygon id="Fill-81" fill="#000000" mask="url(#mask-2)" points="647 208 630 208 630 191 646.842211 191 646.842211 193.525943 633.153992 193.525943 633.153992 197.896226 641.398481 197.896226 641.398481 200.42217 633.153992 200.42217 633.153992 205.514151 647 205.514151"></polygon>
                <polygon id="Stroke-82" stroke="#000000" stroke-width="0.25" mask="url(#mask-2)" points="647 208 630 208 630 191 646.842211 191 646.842211 193.525943 633.153992 193.525943 633.153992 197.896226 641.398481 197.896226 641.398481 200.42217 633.153992 200.42217 633.153992 205.514151 647 205.514151"></polygon>
                <path d="M672,203.990566 C672,205.568825 671.700948,206.631325 671.102845,207.178066 C670.501026,207.72663 669.39955,208 667.790986,208 L657.249878,208 C655.476,208 654.326229,207.693825 653.794995,207.07783 C653.26376,206.463658 653,205.273585 653,203.509434 L655.98123,202.908019 L655.98123,205.433962 L669.057777,205.433962 L669.057777,200.662736 L657.901848,200.662736 C655.886499,200.662736 654.632711,200.196184 654.144198,199.259434 C653.843289,198.698113 653.694692,197.294811 653.694692,195.049528 C653.694692,193.473092 653.993743,192.403302 654.591847,191.841981 C655.191808,191.28066 656.295141,191 657.901848,191 L667.547659,191 C669.208231,191 670.331997,191.28795 670.917098,191.862028 C671.5022,192.437929 671.797536,193.525943 671.797536,195.129717 L668.812592,195.771226 L668.812592,193.525943 L656.675921,193.525943 L656.675921,197.936321 L667.790986,197.936321 C669.39955,197.936321 670.501026,198.211514 671.102845,198.758255 C671.700948,199.306818 672,200.369318 672,201.945755 L672,203.990566 Z" id="Fill-83" fill="#000000" mask="url(#mask-2)"></path>
                <path d="M672,203.990566 C672,205.568825 671.700948,206.631325 671.102845,207.178066 C670.501026,207.72663 669.39955,208 667.790986,208 L657.249878,208 C655.476,208 654.326229,207.693825 653.794995,207.07783 C653.26376,206.463658 653,205.273585 653,203.509434 L655.98123,202.908019 L655.98123,205.433962 L669.057777,205.433962 L669.057777,200.662736 L657.901848,200.662736 C655.886499,200.662736 654.632711,200.196184 654.144198,199.259434 C653.843289,198.698113 653.694692,197.294811 653.694692,195.049528 C653.694692,193.473092 653.993743,192.403302 654.591847,191.841981 C655.191808,191.28066 656.295141,191 657.901848,191 L667.547659,191 C669.208231,191 670.331997,191.28795 670.917098,191.862028 C671.5022,192.437929 671.797536,193.525943 671.797536,195.129717 L668.812592,195.771226 L668.812592,193.525943 L656.675921,193.525943 L656.675921,197.936321 L667.790986,197.936321 C669.39955,197.936321 670.501026,198.211514 671.102845,198.758255 C671.700948,199.306818 672,200.369318 672,201.945755 L672,203.990566 Z" id="Stroke-84" stroke="#000000" stroke-width="0.25" mask="url(#mask-2)"></path>
                <path d="M17,197.999125 C17,199.656168 18.343832,201 19.9991251,201 C21.6579178,201 23,199.656168 23,197.999125 C23,196.342082 21.6579178,195 19.9991251,195 C18.343832,195 17,196.342082 17,197.999125" id="Fill-85" fill="#000000" mask="url(#mask-2)"></path>
                <path d="M18,187 C18,188.10396 18.8956701,189 19.9991753,189 C21.1043299,189 22,188.10396 22,187 C22,185.89604 21.1043299,185 19.9991753,185 C18.8956701,185 18,185.89604 18,187" id="Fill-86" fill="#000000" mask="url(#mask-2)"></path>
                <path d="M18,208 C18,209.10396 18.8956701,210 19.9991753,210 C21.1043299,210 22,209.10396 22,208 C22,206.89604 21.1043299,206 19.9991753,206 C18.8956701,206 18,206.89604 18,208" id="Fill-87" fill="#000000" mask="url(#mask-2)"></path>
                <path d="M26,206.000825 C26,207.10433 26.8940206,208 27.9991753,208 C29.1043299,208 30,207.10433 30,206.000825 C30,204.89567 29.1043299,204 27.9991753,204 C26.8940206,204 26,204.89567 26,206.000825" id="Fill-88" fill="#000000" mask="url(#mask-2)"></path>
                <path d="M26,189 C26,190.105611 26.8940206,191 27.9991753,191 C29.1043299,191 30,190.105611 30,189 C30,187.89604 29.1043299,187 27.9991753,187 C26.8940206,187 26,187.89604 26,189" id="Fill-89" fill="#000000" mask="url(#mask-2)"></path>
                <path d="M28,197.999175 C28,199.10433 28.8956701,200 29.9991753,200 C31.1043299,200 32,199.10433 32,197.999175 C32,196.89567 31.1043299,196 29.9991753,196 C28.8956701,196 28,196.89567 28,197.999175" id="Fill-90" fill="#000000" mask="url(#mask-2)"></path>
                <path d="M37,197.5 C37,198.329638 37.6717201,199 38.4991254,199 C39.3282799,199 40,198.329638 40,197.5 C40,196.672112 39.3282799,196 38.4991254,196 C37.6717201,196 37,196.672112 37,197.5" id="Fill-91" fill="#000000" mask="url(#mask-2)"></path>
                <path d="M32,184.5 C32,185.329638 32.6717201,186 33.4991254,186 C34.3282799,186 35,185.329638 35,184.5 C35,183.670362 34.3282799,183 33.4991254,183 C32.6717201,183 32,183.670362 32,184.5" id="Fill-92" fill="#000000" mask="url(#mask-2)"></path>
                <path d="M19,179.5 C19,180.329638 19.672112,181 20.5,181 C21.3296383,181 22,180.329638 22,179.5 C22,178.670362 21.3296383,178 20.5,178 C19.672112,178 19,178.670362 19,179.5" id="Fill-93" fill="#000000" mask="url(#mask-2)"></path>
                <path d="M19,216.5 C19,217.329638 19.672112,218 20.5,218 C21.3296383,218 22,217.329638 22,216.5 C22,215.670362 21.3296383,215 20.5,215 C19.672112,215 19,215.670362 19,216.5" id="Fill-94" fill="#000000" mask="url(#mask-2)"></path>
                <path d="M32,211.5 C32,212.329638 32.6717201,213 33.4991254,213 C34.3282799,213 35,212.329638 35,211.5 C35,210.670362 34.3282799,210 33.4991254,210 C32.6717201,210 32,210.670362 32,211.5" id="Fill-95" fill="#000000" mask="url(#mask-2)"></path>
                <path d="M19,181.942 C19,182.462 19.422,182.884 19.942,182.884 C20.462,182.884 20.886,182.462 20.886,181.942 C20.886,181.422 20.462,181 19.942,181 C19.422,181 19,181.422 19,181.942" id="Fill-96" fill="#000000" mask="url(#mask-2)"></path>
                <path d="M19,183.942 C19,184.462 19.422,184.884 19.942,184.884 C20.462,184.884 20.886,184.462 20.886,183.942 C20.886,183.422 20.462,183 19.942,183 C19.422,183 19,183.422 19,183.942" id="Fill-97" fill="#000000" mask="url(#mask-2)"></path>
                <path d="M19,190.942 C19,191.462 19.422,191.884 19.942,191.884 C20.462,191.884 20.886,191.462 20.886,190.942 C20.886,190.422 20.462,190 19.942,190 C19.422,190 19,190.422 19,190.942" id="Fill-98" fill="#000000" mask="url(#mask-2)"></path>
                <path d="M19,192.942 C19,193.462 19.422,193.884 19.942,193.884 C20.462,193.884 20.886,193.462 20.886,192.942 C20.886,192.422 20.462,192 19.942,192 C19.422,192 19,192.422 19,192.942" id="Fill-99" fill="#000000" mask="url(#mask-2)"></path>
                <path d="M19,202.942 C19,203.462 19.422,203.884 19.942,203.884 C20.462,203.884 20.886,203.462 20.886,202.942 C20.886,202.422 20.462,202 19.942,202 C19.422,202 19,202.422 19,202.942" id="Fill-100" fill="#000000" mask="url(#mask-2)"></path>
                <path d="M19,204.942 C19,205.462 19.422,205.884 19.942,205.884 C20.462,205.884 20.886,205.462 20.886,204.942 C20.886,204.422 20.462,204 19.942,204 C19.422,204 19,204.422 19,204.942" id="Fill-101" fill="#000000" mask="url(#mask-2)"></path>
                <path d="M19,211.944 C19,212.464 19.422,212.886 19.942,212.886 C20.462,212.886 20.886,212.464 20.886,211.944 C20.886,211.422 20.462,211 19.942,211 C19.422,211 19,211.422 19,211.944" id="Fill-102" fill="#000000" mask="url(#mask-2)"></path>
                <path d="M19,213.944 C19,214.464 19.422,214.886 19.942,214.886 C20.462,214.886 20.886,214.464 20.886,213.944 C20.886,213.422 20.462,213 19.942,213 C19.422,213 19,213.422 19,213.944" id="Fill-103" fill="#000000" mask="url(#mask-2)"></path>
                <path d="M22,214.942 C22,215.462 22.422,215.884 22.944,215.884 C23.464,215.884 23.886,215.462 23.886,214.942 C23.886,214.422 23.464,214 22.944,214 C22.422,214 22,214.422 22,214.942" id="Fill-104" fill="#000000" mask="url(#mask-2)"></path>
                <path d="M23,212.942 C23,213.462 23.422,213.886 23.942,213.886 C24.462,213.886 24.884,213.462 24.884,212.942 C24.884,212.422 24.462,212 23.942,212 C23.422,212 23,212.422 23,212.942" id="Fill-105" fill="#000000" mask="url(#mask-2)"></path>
                <path d="M25,210.942 C25,211.462 25.422,211.884 25.942,211.884 C26.462,211.884 26.884,211.462 26.884,210.942 C26.884,210.422 26.462,210 25.942,210 C25.422,210 25,210.422 25,210.942" id="Fill-106" fill="#000000" mask="url(#mask-2)"></path>
                <path d="M26,209.942 C26,210.462 26.422,210.884 26.944,210.884 C27.464,210.884 27.886,210.462 27.886,209.942 C27.886,209.422 27.464,209 26.944,209 C26.422,209 26,209.422 26,209.942" id="Fill-107" fill="#000000" mask="url(#mask-2)"></path>
                <path d="M22,216.942 C22,217.462 22.422,217.884 22.942,217.884 C23.462,217.884 23.886,217.462 23.886,216.942 C23.886,216.422 23.462,216 22.942,216 C22.422,216 22,216.422 22,216.942" id="Fill-108" fill="#000000" mask="url(#mask-2)"></path>
                <path d="M24,215.944 C24,216.464 24.422,216.886 24.942,216.886 C25.462,216.886 25.884,216.464 25.884,215.944 C25.884,215.422 25.462,215 24.942,215 C24.422,215 24,215.422 24,215.944" id="Fill-109" fill="#000000" mask="url(#mask-2)"></path>
                <path d="M27,214.942 C27,215.462 27.422,215.884 27.942,215.884 C28.462,215.884 28.884,215.462 28.884,214.942 C28.884,214.422 28.462,214 27.942,214 C27.422,214 27,214.422 27,214.942" id="Fill-110" fill="#000000" mask="url(#mask-2)"></path>
                <path d="M29,213.942 C29,214.462 29.422,214.884 29.942,214.884 C30.462,214.884 30.884,214.462 30.884,213.942 C30.884,213.422 30.462,213 29.942,213 C29.422,213 29,213.422 29,213.942" id="Fill-111" fill="#000000" mask="url(#mask-2)"></path>
                <path d="M31,212.942 C31,213.462 31.422,213.886 31.944,213.886 C32.464,213.886 32.886,213.462 32.886,212.942 C32.886,212.422 32.464,212 31.944,212 C31.422,212 31,212.422 31,212.942" id="Fill-112" fill="#000000" mask="url(#mask-2)"></path>
                <path d="M31,206.942 C31,207.462 31.422,207.884 31.942,207.884 C32.462,207.884 32.886,207.462 32.886,206.942 C32.886,206.422 32.462,206 31.942,206 C31.422,206 31,206.422 31,206.942" id="Fill-113" fill="#000000" mask="url(#mask-2)"></path>
                <path d="M33,207.944 C33,208.464 33.422,208.886 33.942,208.886 C34.462,208.886 34.886,208.464 34.886,207.944 C34.886,207.424 34.462,207 33.942,207 C33.422,207 33,207.424 33,207.944" id="Fill-114" fill="#000000" mask="url(#mask-2)"></path>
                <path d="M34,208.942 C34,209.462 34.422,209.884 34.942,209.884 C35.462,209.884 35.884,209.462 35.884,208.942 C35.884,208.422 35.462,208 34.942,208 C34.422,208 34,208.422 34,208.942" id="Fill-115" fill="#000000" mask="url(#mask-2)"></path>
                <path d="M36,206.942 C36,207.462 36.422,207.884 36.942,207.884 C37.464,207.884 37.886,207.462 37.886,206.942 C37.886,206.422 37.464,206 36.942,206 C36.422,206 36,206.422 36,206.942" id="Fill-116" fill="#000000" mask="url(#mask-2)"></path>
                <path d="M37,204.942 C37,205.462 37.422,205.884 37.944,205.884 C38.464,205.884 38.886,205.462 38.886,204.942 C38.886,204.422 38.464,204 37.944,204 C37.422,204 37,204.422 37,204.942" id="Fill-117" fill="#000000" mask="url(#mask-2)"></path>
                <path d="M37,202.942 C37,203.462 37.422,203.884 37.942,203.884 C38.462,203.884 38.884,203.462 38.884,202.942 C38.884,202.422 38.462,202 37.942,202 C37.422,202 37,202.422 37,202.942" id="Fill-118" fill="#000000" mask="url(#mask-2)"></path>
                <path d="M38,200.942 C38,201.462 38.422,201.884 38.942,201.884 C39.462,201.884 39.884,201.462 39.884,200.942 C39.884,200.422 39.462,200 38.942,200 C38.422,200 38,200.422 38,200.942" id="Fill-119" fill="#000000" mask="url(#mask-2)"></path>
                <path d="M29,202.942 C29,203.462 29.422,203.884 29.942,203.884 C30.462,203.884 30.884,203.462 30.884,202.942 C30.884,202.422 30.462,202 29.942,202 C29.422,202 29,202.422 29,202.942" id="Fill-120" fill="#000000" mask="url(#mask-2)"></path>
                <path d="M29,200.942 C29,201.462 29.422,201.884 29.942,201.884 C30.462,201.884 30.884,201.462 30.884,200.942 C30.884,200.422 30.462,200 29.942,200 C29.422,200 29,200.422 29,200.942" id="Fill-121" fill="#000000" mask="url(#mask-2)"></path>
                <path d="M26,197.944 C26,198.464 26.422,198.886 26.944,198.886 C27.464,198.886 27.886,198.464 27.886,197.944 C27.886,197.424 27.464,197 26.944,197 C26.422,197 26,197.424 26,197.944" id="Fill-122" fill="#000000" mask="url(#mask-2)"></path>
                <path d="M24,197.944 C24,198.464 24.422,198.886 24.942,198.886 C25.462,198.886 25.884,198.464 25.884,197.944 C25.884,197.424 25.462,197 24.942,197 C24.422,197 24,197.424 24,197.944" id="Fill-123" fill="#000000" mask="url(#mask-2)"></path>
                <path d="M22,204.942 C22,205.462 22.422,205.886 22.944,205.886 C23.464,205.886 23.886,205.462 23.886,204.942 C23.886,204.422 23.464,204 22.944,204 C22.422,204 22,204.422 22,204.942" id="Fill-124" fill="#000000" mask="url(#mask-2)"></path>
                <path d="M24,205.944 C24,206.464 24.422,206.886 24.942,206.886 C25.462,206.886 25.884,206.464 25.884,205.944 C25.884,205.422 25.462,205 24.942,205 C24.422,205 24,205.422 24,205.944" id="Fill-125" fill="#000000" mask="url(#mask-2)"></path>
                <path d="M22,180.942 C22,180.422 22.422,180 22.944,180 C23.464,180 23.886,180.422 23.886,180.942 C23.886,181.462 23.464,181.884 22.944,181.884 C22.422,181.884 22,181.462 22,180.942" id="Fill-126" fill="#000000" mask="url(#mask-2)"></path>
                <path d="M23,182.944 C23,182.424 23.422,182 23.942,182 C24.462,182 24.884,182.424 24.884,182.944 C24.884,183.464 24.462,183.886 23.942,183.886 C23.422,183.886 23,183.464 23,182.944" id="Fill-127" fill="#000000" mask="url(#mask-2)"></path>
                <path d="M25,184.942 C25,184.422 25.422,184 25.942,184 C26.462,184 26.884,184.422 26.884,184.942 C26.884,185.462 26.462,185.884 25.942,185.884 C25.422,185.884 25,185.462 25,184.942" id="Fill-128" fill="#000000" mask="url(#mask-2)"></path>
                <path d="M26,186.944 C26,186.424 26.422,186 26.944,186 C27.464,186 27.886,186.424 27.886,186.944 C27.886,187.464 27.464,187.886 26.944,187.886 C26.422,187.886 26,187.464 26,186.944" id="Fill-129" fill="#000000" mask="url(#mask-2)"></path>
                <path d="M22,178.942 C22,178.422 22.422,178 22.942,178 C23.462,178 23.886,178.422 23.886,178.942 C23.886,179.462 23.462,179.884 22.942,179.884 C22.422,179.884 22,179.462 22,178.942" id="Fill-130" fill="#000000" mask="url(#mask-2)"></path>
                <path d="M24,179.942 C24,179.422 24.422,179 24.942,179 C25.462,179 25.884,179.422 25.884,179.942 C25.884,180.464 25.462,180.886 24.942,180.886 C24.422,180.886 24,180.464 24,179.942" id="Fill-131" fill="#000000" mask="url(#mask-2)"></path>
                <path d="M27,180.942 C27,180.422 27.422,180 27.942,180 C28.462,180 28.884,180.422 28.884,180.942 C28.884,181.462 28.462,181.884 27.942,181.884 C27.422,181.884 27,181.462 27,180.942" id="Fill-132" fill="#000000" mask="url(#mask-2)"></path>
                <path d="M29,181.942 C29,181.422 29.422,181 29.942,181 C30.462,181 30.884,181.422 30.884,181.942 C30.884,182.462 30.462,182.884 29.942,182.884 C29.422,182.884 29,182.462 29,181.942" id="Fill-133" fill="#000000" mask="url(#mask-2)"></path>
                <path d="M31,182.944 C31,182.424 31.422,182 31.944,182 C32.464,182 32.886,182.424 32.886,182.944 C32.886,183.464 32.464,183.886 31.944,183.886 C31.422,183.886 31,183.464 31,182.944" id="Fill-134" fill="#000000" mask="url(#mask-2)"></path>
                <path d="M31,188.942 C31,188.422 31.422,188 31.942,188 C32.462,188 32.886,188.422 32.886,188.942 C32.886,189.462 32.462,189.884 31.942,189.884 C31.422,189.884 31,189.462 31,188.942" id="Fill-135" fill="#000000" mask="url(#mask-2)"></path>
                <path d="M33,187.942 C33,187.422 33.422,187 33.942,187 C34.462,187 34.886,187.422 34.886,187.942 C34.886,188.462 34.462,188.886 33.942,188.886 C33.422,188.886 33,188.462 33,187.942" id="Fill-136" fill="#000000" mask="url(#mask-2)"></path>
                <path d="M34,186.942 C34,186.422 34.422,186 34.942,186 C35.462,186 35.884,186.422 35.884,186.942 C35.884,187.462 35.462,187.884 34.942,187.884 C34.422,187.884 34,187.462 34,186.942" id="Fill-137" fill="#000000" mask="url(#mask-2)"></path>
                <path d="M36,188.942 C36,188.422 36.422,188 36.942,188 C37.464,188 37.886,188.422 37.886,188.942 C37.886,189.462 37.464,189.884 36.942,189.884 C36.422,189.884 36,189.462 36,188.942" id="Fill-138" fill="#000000" mask="url(#mask-2)"></path>
                <path d="M37,190.942 C37,190.422 37.422,190 37.944,190 C38.464,190 38.886,190.422 38.886,190.942 C38.886,191.462 38.464,191.884 37.944,191.884 C37.422,191.884 37,191.462 37,190.942" id="Fill-139" fill="#000000" mask="url(#mask-2)"></path>
                <path d="M37,192.942 C37,192.422 37.422,192 37.942,192 C38.462,192 38.884,192.422 38.884,192.942 C38.884,193.462 38.462,193.884 37.942,193.884 C37.422,193.884 37,193.462 37,192.942" id="Fill-140" fill="#000000" mask="url(#mask-2)"></path>
                <path d="M38,194.942 C38,194.422 38.422,194 38.942,194 C39.462,194 39.884,194.422 39.884,194.942 C39.884,195.462 39.462,195.884 38.942,195.884 C38.422,195.884 38,195.462 38,194.942" id="Fill-141" fill="#000000" mask="url(#mask-2)"></path>
                <path d="M29,192.942 C29,192.422 29.422,192 29.942,192 C30.462,192 30.884,192.422 30.884,192.942 C30.884,193.462 30.462,193.884 29.942,193.884 C29.422,193.884 29,193.462 29,192.942" id="Fill-142" fill="#000000" mask="url(#mask-2)"></path>
                <path d="M29,194.942 C29,194.422 29.422,194 29.942,194 C30.462,194 30.884,194.422 30.884,194.942 C30.884,195.462 30.462,195.884 29.942,195.884 C29.422,195.884 29,195.462 29,194.942" id="Fill-143" fill="#000000" mask="url(#mask-2)"></path>
                <path d="M22,190.944 C22,190.424 22.422,190 22.944,190 C23.464,190 23.886,190.424 23.886,190.944 C23.886,191.464 23.464,191.886 22.944,191.886 C22.422,191.886 22,191.464 22,190.944" id="Fill-144" fill="#000000" mask="url(#mask-2)"></path>
                <path d="M24,189.942 C24,189.422 24.422,189 24.942,189 C25.462,189 25.884,189.422 25.884,189.942 C25.884,190.464 25.462,190.886 24.942,190.886 C24.422,190.886 24,190.464 24,189.942" id="Fill-145" fill="#000000" mask="url(#mask-2)"></path>
                <path d="M33,197.944 C33,198.464 33.422,198.886 33.942,198.886 C34.462,198.886 34.886,198.464 34.886,197.944 C34.886,197.424 34.462,197 33.942,197 C33.422,197 33,197.424 33,197.944" id="Fill-146" fill="#000000" mask="url(#mask-2)"></path>
                <path d="M35,197.944 C35,198.464 35.422,198.886 35.942,198.886 C36.462,198.886 36.884,198.464 36.884,197.944 C36.884,197.424 36.462,197 35.942,197 C35.422,197 35,197.424 35,197.944" id="Fill-147" fill="#000000" mask="url(#mask-2)"></path>
                <path d="M14,206.000825 C14,207.10433 13.1043299,208 12.0008247,208 C10.8956701,208 10,207.10433 10,206.000825 C10,204.89567 10.8956701,204 12.0008247,204 C13.1043299,204 14,204.89567 14,206.000825" id="Fill-148" fill="#000000" mask="url(#mask-2)"></path>
                <path d="M14,189 C14,190.105611 13.1043299,191 12.0008247,191 C10.8956701,191 10,190.105611 10,189 C10,187.89604 10.8956701,187 12.0008247,187 C13.1043299,187 14,187.89604 14,189" id="Fill-149" fill="#000000" mask="url(#mask-2)"></path>
                <path d="M12,197.999175 C12,199.10433 11.1059794,200 10.0008247,200 C8.8956701,200 8,199.10433 8,197.999175 C8,196.89567 8.8956701,196 10.0008247,196 C11.1059794,196 12,196.89567 12,197.999175" id="Fill-150" fill="#000000" mask="url(#mask-2)"></path>
                <path d="M3,197.5 C3,198.329638 2.32827988,199 1.50087464,199 C0.671720117,199 0,198.329638 0,197.5 C0,196.672112 0.671720117,196 1.50087464,196 C2.32827988,196 3,196.672112 3,197.5" id="Fill-151" fill="#000000" mask="url(#mask-2)"></path>
                <path d="M9,184.5 C9,185.329638 8.32827988,186 7.50087464,186 C6.67172012,186 6,185.329638 6,184.5 C6,183.670362 6.67172012,183 7.50087464,183 C8.32827988,183 9,183.670362 9,184.5" id="Fill-152" fill="#000000" mask="url(#mask-2)"></path>
                <path d="M9,211.5 C9,212.329638 8.32827988,213 7.50087464,213 C6.67172012,213 6,212.329638 6,211.5 C6,210.670362 6.67172012,210 7.50087464,210 C8.32827988,210 9,210.670362 9,211.5" id="Fill-153" fill="#000000" mask="url(#mask-2)"></path>
                <path d="M18.884,214.942 C18.884,215.462 18.462,215.884 17.942,215.884 C17.422,215.884 17,215.462 17,214.942 C17,214.422 17.422,214 17.942,214 C18.462,214 18.884,214.422 18.884,214.942" id="Fill-154" fill="#000000" mask="url(#mask-2)"></path>
                <path d="M17.886,212.942 C17.886,213.462 17.464,213.886 16.944,213.886 C16.422,213.886 16,213.462 16,212.942 C16,212.422 16.422,212 16.944,212 C17.464,212 17.886,212.422 17.886,212.942" id="Fill-155" fill="#000000" mask="url(#mask-2)"></path>
                <path d="M15.886,210.942 C15.886,211.462 15.464,211.884 14.942,211.884 C14.422,211.884 14,211.462 14,210.942 C14,210.422 14.422,210 14.942,210 C15.464,210 15.886,210.422 15.886,210.942" id="Fill-156" fill="#000000" mask="url(#mask-2)"></path>
                <path d="M14.884,209.942 C14.884,210.462 14.462,210.884 13.942,210.884 C13.422,210.884 13,210.462 13,209.942 C13,209.422 13.422,209 13.942,209 C14.462,209 14.884,209.422 14.884,209.942" id="Fill-157" fill="#000000" mask="url(#mask-2)"></path>
                <path d="M18.886,216.942 C18.886,217.462 18.464,217.884 17.942,217.884 C17.422,217.884 17,217.462 17,216.942 C17,216.422 17.422,216 17.942,216 C18.464,216 18.886,216.422 18.886,216.942" id="Fill-158" fill="#000000" mask="url(#mask-2)"></path>
                <path d="M16.886,215.944 C16.886,216.464 16.464,216.886 15.944,216.886 C15.422,216.886 15,216.464 15,215.944 C15,215.422 15.422,215 15.944,215 C16.464,215 16.886,215.422 16.886,215.944" id="Fill-159" fill="#000000" mask="url(#mask-2)"></path>
                <path d="M13.886,214.942 C13.886,215.462 13.464,215.884 12.944,215.884 C12.424,215.884 12,215.462 12,214.942 C12,214.422 12.424,214 12.944,214 C13.464,214 13.886,214.422 13.886,214.942" id="Fill-160" fill="#000000" mask="url(#mask-2)"></path>
                <path d="M11.886,213.942 C11.886,214.462 11.464,214.884 10.944,214.884 C10.424,214.884 10,214.462 10,213.942 C10,213.422 10.424,213 10.944,213 C11.464,213 11.886,213.422 11.886,213.942" id="Fill-161" fill="#000000" mask="url(#mask-2)"></path>
                <path d="M9.884,212.942 C9.884,213.462 9.462,213.886 8.942,213.886 C8.422,213.886 8,213.462 8,212.942 C8,212.422 8.422,212 8.942,212 C9.462,212 9.884,212.422 9.884,212.942" id="Fill-162" fill="#000000" mask="url(#mask-2)"></path>
                <path d="M9.886,206.942 C9.886,207.462 9.464,207.884 8.942,207.884 C8.422,207.884 8,207.462 8,206.942 C8,206.422 8.422,206 8.942,206 C9.464,206 9.886,206.422 9.886,206.942" id="Fill-163" fill="#000000" mask="url(#mask-2)"></path>
                <path d="M7.884,207.944 C7.884,208.464 7.462,208.886 6.942,208.886 C6.422,208.886 6,208.464 6,207.944 C6,207.424 6.422,207 6.942,207 C7.462,207 7.884,207.424 7.884,207.944" id="Fill-164" fill="#000000" mask="url(#mask-2)"></path>
                <path d="M5.886,208.942 C5.886,209.462 5.464,209.884 4.944,209.884 C4.424,209.884 4,209.462 4,208.942 C4,208.422 4.424,208 4.944,208 C5.464,208 5.886,208.422 5.886,208.942" id="Fill-165" fill="#000000" mask="url(#mask-2)"></path>
                <path d="M4.884,206.942 C4.884,207.462 4.462,207.884 3.942,207.884 C3.422,207.884 3,207.462 3,206.942 C3,206.422 3.422,206 3.942,206 C4.462,206 4.884,206.422 4.884,206.942" id="Fill-166" fill="#000000" mask="url(#mask-2)"></path>
                <path d="M3.884,204.942 C3.884,205.462 3.462,205.884 2.942,205.884 C2.422,205.884 2,205.462 2,204.942 C2,204.422 2.422,204 2.942,204 C3.462,204 3.884,204.422 3.884,204.942" id="Fill-167" fill="#000000" mask="url(#mask-2)"></path>
                <path d="M3.886,202.942 C3.886,203.462 3.464,203.884 2.944,203.884 C2.424,203.884 2,203.462 2,202.942 C2,202.422 2.424,202 2.944,202 C3.464,202 3.886,202.422 3.886,202.942" id="Fill-168" fill="#000000" mask="url(#mask-2)"></path>
                <path d="M2.886,200.942 C2.886,201.462 2.464,201.884 1.944,201.884 C1.424,201.884 1,201.462 1,200.942 C1,200.422 1.424,200 1.944,200 C2.464,200 2.886,200.422 2.886,200.942" id="Fill-169" fill="#000000" mask="url(#mask-2)"></path>
                <path d="M11.886,202.942 C11.886,203.462 11.464,203.884 10.942,203.884 C10.422,203.884 10,203.462 10,202.942 C10,202.422 10.422,202 10.942,202 C11.464,202 11.886,202.422 11.886,202.942" id="Fill-170" fill="#000000" mask="url(#mask-2)"></path>
                <path d="M11.886,200.942 C11.886,201.462 11.464,201.884 10.944,201.884 C10.422,201.884 10,201.462 10,200.942 C10,200.422 10.422,200 10.944,200 C11.464,200 11.886,200.422 11.886,200.942" id="Fill-171" fill="#000000" mask="url(#mask-2)"></path>
                <path d="M14.884,197.944 C14.884,198.464 14.462,198.886 13.942,198.886 C13.422,198.886 13,198.464 13,197.944 C13,197.424 13.422,197 13.942,197 C14.462,197 14.884,197.424 14.884,197.944" id="Fill-172" fill="#000000" mask="url(#mask-2)"></path>
                <path d="M16.884,197.944 C16.884,198.464 16.462,198.886 15.942,198.886 C15.422,198.886 15,198.464 15,197.944 C15,197.424 15.422,197 15.942,197 C16.462,197 16.884,197.424 16.884,197.944" id="Fill-173" fill="#000000" mask="url(#mask-2)"></path>
                <path d="M18.884,204.942 C18.884,205.462 18.462,205.886 17.942,205.886 C17.422,205.886 17,205.462 17,204.942 C17,204.422 17.422,204 17.942,204 C18.462,204 18.884,204.422 18.884,204.942" id="Fill-174" fill="#000000" mask="url(#mask-2)"></path>
                <path d="M16.886,205.944 C16.886,206.464 16.464,206.886 15.944,206.886 C15.422,206.886 15,206.464 15,205.944 C15,205.422 15.422,205 15.944,205 C16.464,205 16.886,205.422 16.886,205.944" id="Fill-175" fill="#000000" mask="url(#mask-2)"></path>
                <path d="M18.884,180.942 C18.884,180.422 18.462,180 17.942,180 C17.422,180 17,180.422 17,180.942 C17,181.462 17.422,181.884 17.942,181.884 C18.462,181.884 18.884,181.462 18.884,180.942" id="Fill-176" fill="#000000" mask="url(#mask-2)"></path>
                <path d="M17.886,182.944 C17.886,182.424 17.464,182 16.944,182 C16.422,182 16,182.424 16,182.944 C16,183.464 16.422,183.886 16.944,183.886 C17.464,183.886 17.886,183.464 17.886,182.944" id="Fill-177" fill="#000000" mask="url(#mask-2)"></path>
                <path d="M15.886,184.942 C15.886,184.422 15.464,184 14.942,184 C14.422,184 14,184.422 14,184.942 C14,185.462 14.422,185.884 14.942,185.884 C15.464,185.884 15.886,185.462 15.886,184.942" id="Fill-178" fill="#000000" mask="url(#mask-2)"></path>
                <path d="M14.884,186.944 C14.884,186.424 14.462,186 13.942,186 C13.422,186 13,186.424 13,186.944 C13,187.464 13.422,187.886 13.942,187.886 C14.462,187.886 14.884,187.464 14.884,186.944" id="Fill-179" fill="#000000" mask="url(#mask-2)"></path>
                <path d="M18.886,178.942 C18.886,178.422 18.464,178 17.942,178 C17.422,178 17,178.422 17,178.942 C17,179.462 17.422,179.884 17.942,179.884 C18.464,179.884 18.886,179.462 18.886,178.942" id="Fill-180" fill="#000000" mask="url(#mask-2)"></path>
                <path d="M16.886,179.942 C16.886,179.422 16.464,179 15.944,179 C15.422,179 15,179.422 15,179.942 C15,180.464 15.422,180.886 15.944,180.886 C16.464,180.886 16.886,180.464 16.886,179.942" id="Fill-181" fill="#000000" mask="url(#mask-2)"></path>
                <path d="M13.886,180.942 C13.886,180.422 13.464,180 12.944,180 C12.424,180 12,180.422 12,180.942 C12,181.462 12.424,181.884 12.944,181.884 C13.464,181.884 13.886,181.462 13.886,180.942" id="Fill-182" fill="#000000" mask="url(#mask-2)"></path>
                <path d="M11.886,181.942 C11.886,181.422 11.464,181 10.944,181 C10.424,181 10,181.422 10,181.942 C10,182.462 10.424,182.884 10.944,182.884 C11.464,182.884 11.886,182.462 11.886,181.942" id="Fill-183" fill="#000000" mask="url(#mask-2)"></path>
                <path d="M9.884,182.944 C9.884,182.424 9.462,182 8.942,182 C8.422,182 8,182.424 8,182.944 C8,183.464 8.422,183.886 8.942,183.886 C9.462,183.886 9.884,183.464 9.884,182.944" id="Fill-184" fill="#000000" mask="url(#mask-2)"></path>
                <path d="M9.886,188.942 C9.886,188.422 9.464,188 8.942,188 C8.422,188 8,188.422 8,188.942 C8,189.462 8.422,189.884 8.942,189.884 C9.464,189.884 9.886,189.462 9.886,188.942" id="Fill-185" fill="#000000" mask="url(#mask-2)"></path>
                <path d="M7.884,187.942 C7.884,187.422 7.462,187 6.942,187 C6.422,187 6,187.422 6,187.942 C6,188.462 6.422,188.886 6.942,188.886 C7.462,188.886 7.884,188.462 7.884,187.942" id="Fill-186" fill="#000000" mask="url(#mask-2)"></path>
                <path d="M5.886,186.942 C5.886,186.422 5.464,186 4.944,186 C4.424,186 4,186.422 4,186.942 C4,187.462 4.424,187.884 4.944,187.884 C5.464,187.884 5.886,187.462 5.886,186.942" id="Fill-187" fill="#000000" mask="url(#mask-2)"></path>
                <path d="M4.884,188.942 C4.884,188.422 4.462,188 3.942,188 C3.422,188 3,188.422 3,188.942 C3,189.462 3.422,189.884 3.942,189.884 C4.462,189.884 4.884,189.462 4.884,188.942" id="Fill-188" fill="#000000" mask="url(#mask-2)"></path>
                <path d="M3.884,190.942 C3.884,190.422 3.462,190 2.942,190 C2.422,190 2,190.422 2,190.942 C2,191.462 2.422,191.884 2.942,191.884 C3.462,191.884 3.884,191.462 3.884,190.942" id="Fill-189" fill="#000000" mask="url(#mask-2)"></path>
                <path d="M3.886,192.942 C3.886,192.422 3.464,192 2.944,192 C2.424,192 2,192.422 2,192.942 C2,193.462 2.424,193.884 2.944,193.884 C3.464,193.884 3.886,193.462 3.886,192.942" id="Fill-190" fill="#000000" mask="url(#mask-2)"></path>
                <path d="M2.886,194.942 C2.886,194.422 2.464,194 1.944,194 C1.424,194 1,194.422 1,194.942 C1,195.462 1.424,195.884 1.944,195.884 C2.464,195.884 2.886,195.462 2.886,194.942" id="Fill-191" fill="#000000" mask="url(#mask-2)"></path>
                <path d="M11.886,192.942 C11.886,192.422 11.464,192 10.942,192 C10.422,192 10,192.422 10,192.942 C10,193.462 10.422,193.884 10.942,193.884 C11.464,193.884 11.886,193.462 11.886,192.942" id="Fill-192" fill="#000000" mask="url(#mask-2)"></path>
                <path d="M11.886,194.942 C11.886,194.422 11.464,194 10.944,194 C10.422,194 10,194.422 10,194.942 C10,195.462 10.422,195.884 10.944,195.884 C11.464,195.884 11.886,195.462 11.886,194.942" id="Fill-193" fill="#000000" mask="url(#mask-2)"></path>
                <path d="M18.884,190.944 C18.884,190.424 18.462,190 17.942,190 C17.422,190 17,190.424 17,190.944 C17,191.464 17.422,191.886 17.942,191.886 C18.462,191.886 18.884,191.464 18.884,190.944" id="Fill-194" fill="#000000" mask="url(#mask-2)"></path>
                <path d="M16.886,189.942 C16.886,189.422 16.464,189 15.944,189 C15.422,189 15,189.422 15,189.942 C15,190.464 15.422,190.886 15.944,190.886 C16.464,190.886 16.886,190.464 16.886,189.942" id="Fill-195" fill="#000000" mask="url(#mask-2)"></path>
                <path d="M7.884,197.944 C7.884,198.464 7.462,198.886 6.942,198.886 C6.422,198.886 6,198.464 6,197.944 C6,197.424 6.422,197 6.942,197 C7.462,197 7.884,197.424 7.884,197.944" id="Fill-196" fill="#000000" mask="url(#mask-2)"></path>
                <path d="M5.886,197.944 C5.886,198.464 5.464,198.886 4.942,198.886 C4.422,198.886 4,198.464 4,197.944 C4,197.424 4.422,197 4.942,197 C5.464,197 5.886,197.424 5.886,197.944" id="Fill-197" fill="#000000" mask="url(#mask-2)"></path>
                <path d="M71,192.5079 C71,194.250886 70.6918589,195.435316 70.0773999,196.061189 C69.462941,196.687063 68.2923694,197 66.5711551,197 L55.463488,197 C53.5945847,197 52.3638436,196.619745 51.7749111,195.857416 C51.2570882,195.220626 51,193.930671 51,191.99301 L53.9501322,191.29254 L53.9501322,194.349133 L68.1209773,194.349133 L68.1209773,188.641674 L56.1654663,188.641674 C54.0504148,188.641674 52.7212143,188.101312 52.1796882,187.020588 C51.8843103,186.432922 51.7384447,184.922819 51.7384447,182.4921 C51.7384447,180.749114 52.0447625,179.564684 52.6592214,178.938811 C53.2736804,178.312937 54.4424287,178 56.1654663,178 L66.3140669,178 C68.0608077,178 69.2404959,178.320214 69.8567782,178.957005 C70.4694138,179.595614 70.7775549,180.798238 70.7775549,182.566695 L68.0480445,183.338121 L68.0480445,180.578091 L54.5791777,180.578091 L54.5791777,185.879824 L66.5711551,185.879824 C68.2923694,185.879824 69.462941,186.198219 70.0773999,186.836828 C70.6918589,187.475438 71,188.65441 71,190.371924 L71,192.5079 Z" id="Fill-198" fill="#000000" mask="url(#mask-2)"></path>
                <path d="M96.8527059,185.106579 L96.8527059,182.453893 C96.8527059,181.695203 96.7024941,181.173035 96.4002824,180.891027 C96.0980706,180.607201 95.5741176,180.467107 94.8248471,180.467107 L84.1133176,180.467107 L84.1133176,187.095183 L94.8248471,187.095183 C95.5741176,187.095183 96.0980706,186.95327 96.4002824,186.671263 C96.7024941,186.389256 96.8527059,185.867088 96.8527059,185.106579 Z M100,185.916212 C100,187.242555 99.6799059,188.186824 99.0415059,188.750838 C98.4013176,189.316671 97.4070588,189.598679 96.0569412,189.598679 L84.1133176,189.598679 L84.1133176,197 L81,197 L81,178 L96.0569412,178 C97.4070588,178 98.4013176,178.282007 99.0415059,178.847841 C99.6799059,179.411855 100,180.356124 100,181.682467 L100,185.916212 Z" id="Fill-199" fill="#000000" mask="url(#mask-2)"></path>
                <polygon id="Fill-200" fill="#000000" mask="url(#mask-2)" points="108 197 111 197 111 178 108 178"></polygon>
                <path d="M139.713195,187.389926 C139.713195,184.764531 138.915947,182.923298 137.323295,181.866226 C136.027766,181.007469 133.973744,180.578091 131.159383,180.578091 L124.212985,180.578091 L124.212985,194.349133 L131.159383,194.349133 C134.047563,194.349133 136.127422,193.908838 137.397114,193.02461 C138.939938,191.969357 139.713195,190.089917 139.713195,187.389926 M143,187.389926 C143,191.097865 141.667561,193.810591 139.002684,195.528105 C137.483852,196.510581 135.020133,197 131.607835,197 L121,197 L121,178 L131.607835,178 C134.99245,178 137.458015,178.491238 139.002684,179.473714 C140.298213,180.308819 141.292928,181.462319 141.990521,182.934214 C142.664122,184.28421 143,185.77066 143,187.389926" id="Fill-201" fill="#000000" mask="url(#mask-2)"></path>
                <polygon id="Fill-202" fill="#000000" mask="url(#mask-2)" points="170 197 151 197 151 178 169.84821 178 169.84821 180.541703 154.260677 180.541703 154.260677 185.843436 163.780353 185.843436 163.780353 188.346931 154.260677 188.346931 154.260677 194.385521 170 194.385521"></polygon>
                <path d="M192.970232,185.181174 L192.970232,182.419324 C192.970232,181.682467 192.817106,181.173035 192.512653,180.891027 C192.208201,180.60902 191.680364,180.467107 190.92734,180.467107 L180.136399,180.467107 L180.136399,187.131571 L190.92734,187.131571 C191.680364,187.131571 192.208201,186.998755 192.512653,186.727664 C192.817106,186.456574 192.970232,185.941683 192.970232,185.181174 Z M198,197 L193.334134,197 L185.675989,189.598679 L180.136399,189.598679 L180.136399,197 L177,197 L177,178 L192.168568,178 C193.528695,178 194.530325,178.282007 195.17526,178.847841 C195.818392,179.413674 196.142661,180.357943 196.142661,181.682467 L196.142661,185.918031 C196.142661,187.808388 195.411255,188.961888 193.953847,189.378531 C193.490864,189.525903 191.972206,189.598679 189.397873,189.598679 L198,197 Z" id="Fill-203" fill="#000000" mask="url(#mask-2)"></path>
                <path d="M67,213.217741 C67,214.685511 66.753092,215.681431 66.2592761,216.209232 C65.7654601,216.737032 64.8068762,217 63.3762623,217 L54.6546012,217 C53.2439578,217 52.2835584,216.737032 51.7697719,216.209232 C51.257801,215.681431 51,214.685511 51,213.217741 L51,204.782259 C51,203.314489 51.257801,202.316704 51.7697719,201.790768 C52.2835584,201.262968 53.2439578,201 54.6546012,201 L63.3762623,201 C65.1463747,201 66.2447521,201.46439 66.6677635,202.395034 C66.887439,202.89113 67,204.192913 67,206.30225 L64.4038352,206.798345 L64.4038352,203.170882 L53.5961648,203.170882 L53.5961648,214.767572 L64.4038352,214.767572 L64.4038352,210.767106 L67,211.324746 L67,213.217741 Z" id="Fill-204" fill="#000000" mask="url(#mask-2)"></path>
                <path d="M85.0691538,211.015851 L80.8635123,202.829371 L76.656051,211.015851 L85.0691538,211.015851 Z M91,217 L88.1246588,217 L86.1282985,213.061538 L75.5677889,213.061538 L73.5714286,217 L71,217 L79.533212,201 L82.3157416,201 L91,217 Z" id="Fill-205" fill="#000000" mask="url(#mask-2)"></path>
                <path d="M109.349221,206.984149 L109.349221,204.751981 C109.349221,204.11049 109.222731,203.672261 108.967919,203.433566 C108.713107,203.196737 108.273144,203.077389 107.64253,203.077389 L98.619615,203.077389 L98.619615,208.658741 L107.64253,208.658741 C108.273144,208.658741 108.713107,208.539394 108.967919,208.302564 C109.222731,208.065734 109.349221,207.625641 109.349221,206.984149 Z M112,207.666667 C112,208.781818 111.732356,209.578089 111.193401,210.053613 C110.654445,210.529138 109.816682,210.765967 108.678277,210.765967 L98.619615,210.765967 L98.619615,217 L96,217 L96,201 L108.678277,201 C109.816682,201 110.654445,201.238695 111.193401,201.712354 C111.732356,202.189744 112,202.984149 112,204.101166 L112,207.666667 Z" id="Fill-206" fill="#000000" mask="url(#mask-2)"></path>
                <polygon id="Fill-207" fill="#000000" mask="url(#mask-2)" points="119 217 122 217 122 201 119 201"></polygon>
                <polygon id="Fill-208" fill="#000000" mask="url(#mask-2)" points="143 203.170629 135.7932 203.170629 135.7932 217 133.177534 217 133.177534 203.170629 126 203.170629 126 201 143 201"></polygon>
                <path d="M156.069154,211.015851 L151.863512,202.829371 L147.656051,211.015851 L156.069154,211.015851 Z M162,217 L159.124659,217 L157.128298,213.061538 L146.567789,213.061538 L144.571429,217 L142,217 L150.533212,201 L153.315742,201 L162,217 Z" id="Fill-209" fill="#000000" mask="url(#mask-2)"></path>
                <polygon id="Fill-210" fill="#000000" mask="url(#mask-2)" points="182 217 167 217 167 201 169.704577 201 169.704577 214.767832 182 214.767832"></polygon>
            </g>
        </g>
    </g>
</svg>
