
<svg width="31px" height="32px" viewBox="0 0 31 32" version="1.1" xmlns="http://www.w3.org/2000/svg" xmlns:xlink="http://www.w3.org/1999/xlink">
    <!-- Generator: Sketch 48.2 (47327) - http://www.bohemiancoding.com/sketch -->
    <desc>Created with Sketch.</desc>
    <defs>
        <polygon id="path-1" points="30.999225 32 0 32 0 0.00016 30.999225 0.00016 30.999225 32"></polygon>
    </defs>
    <g id="WEBSITE" stroke="none" stroke-width="1" fill="none" fill-rule="evenodd">
        <g id="Home-Copy-2" transform="translate(-857.000000, -9490.000000)">
            <g id="Footer" transform="translate(163.000000, 9132.000000)">
                <g id="Page-1" transform="translate(694.000000, 357.000000)">
                    <g id="Group-3" transform="translate(0.000000, 1.000000)">
                        <mask id="mask-2" fill="white">
                            <use xlink:href="#path-1"></use>
                        </mask>
                        <g id="Clip-2"></g>
                        <path d="M26.349225,3.20016 L26.349225,8.00016 L23.249225,8.00016 C22.319225,8.00016 21.699225,8.64016 21.699225,9.60016 L21.699225,12.80016 L26.349225,12.80016 L26.349225,17.60016 L21.699225,17.60016 L21.699225,28.80016 L17.049225,28.80016 L17.049225,17.60016 L13.949225,17.60016 L13.949225,12.80016 L17.049225,12.80016 L17.049225,8.80016 C17.049225,5.76016 19.530775,3.20016 22.474225,3.20016 L26.349225,3.20016 Z M27.899225,0.00016 L3.099225,0.00016 C1.394225,0.00016 -0.000775,1.44016 -0.000775,3.20016 L-0.000775,28.80016 C-0.000775,30.56016 1.394225,32.00016 3.099225,32.00016 L27.899225,32.00016 C29.605775,32.00016 30.999225,30.56016 30.999225,28.80016 L30.999225,3.20016 C30.999225,1.44016 29.605775,0.00016 27.899225,0.00016 Z" id="Fill-1" fill="#AABACA" mask="url(#mask-2)"></path>
                    </g>
                </g>
            </g>
        </g>
    </g>
</svg>
