
<svg width="31px" height="32px" viewBox="0 0 31 32" version="1.1" xmlns="http://www.w3.org/2000/svg" xmlns:xlink="http://www.w3.org/1999/xlink">
    <!-- Generator: Sketch 48.2 (47327) - http://www.bohemiancoding.com/sketch -->
    <desc>Created with Sketch.</desc>
    <defs></defs>
    <g id="WEBSITE" stroke="none" stroke-width="1" fill="none" fill-rule="evenodd">
        <g id="Home-Copy-2" transform="translate(-936.000000, -9490.000000)" fill="#AABACA">
            <g id="Footer" transform="translate(163.000000, 9132.000000)">
                <g id="Page-1" transform="translate(694.000000, 357.000000)">
                    <path d="M94,13 C91.7918699,13 90,14.7918699 90,17 C90,19.2081301 91.7918699,21 94,21 C96.2081301,21 98,19.2081301 98,17 C98,14.7918699 96.2081301,13 94,13" id="Fill-10"></path>
                    <path d="M100.684933,12.7044628 C99.9185883,12.7044628 99.2951484,12.0826446 99.2951484,11.3132231 C99.2951484,10.5469421 99.9185883,9.92355372 100.684933,9.92355372 C101.452847,9.92355372 102.076287,10.5469421 102.076287,11.3132231 C102.076287,12.0826446 101.452847,12.7044628 100.684933,12.7044628 M94.5007852,23.4496694 C91.2139846,23.4496694 88.5490536,20.7849587 88.5490536,17.5 C88.5490536,14.2134711 91.2139846,11.5503306 94.5007852,11.5503306 C97.7860154,11.5503306 100.450946,14.2134711 100.450946,17.5 C100.450946,20.7849587 97.7860154,23.4496694 94.5007852,23.4496694 M103.532027,10.6647107 C103.323167,10.1245455 103.073477,9.73826446 102.666749,9.33471074 C102.261592,8.92801653 101.875279,8.67677686 101.333499,8.46636364 C100.9252,8.3077686 100.312753,8.11933884 99.1820812,8.06752066 C97.9603273,8.01256198 97.5928589,8 94.5007852,8 C91.4055707,8 91.0381023,8.01256198 89.8163485,8.06752066 C88.6872469,8.11933884 88.0747996,8.3077686 87.664931,8.46636364 C87.1247211,8.67677686 86.7384081,8.92801653 86.3332507,9.33471074 C85.9280932,9.73826446 85.6752624,10.1245455 85.4664022,10.6647107 C85.307794,11.0745455 85.1193487,11.6885124 85.0675262,12.8175207 C85.012563,14.0391736 85,14.4050413 85,17.5 C85,20.5933884 85.012563,20.9608264 85.0675262,22.1809091 C85.1193487,23.3114876 85.307794,23.9254545 85.4664022,24.3321488 C85.6752624,24.8738843 85.9280932,25.2601653 86.3332507,25.6652893 C86.7384081,26.0719835 87.1247211,26.3216529 87.664931,26.5336364 C88.0747996,26.6906612 88.6872469,26.8790909 89.8163485,26.9324793 C91.0381023,26.987438 91.4055707,27 94.5007852,27 C97.5944293,27 97.9618977,26.987438 99.1820812,26.9324793 C100.312753,26.8790909 100.9252,26.6906612 101.333499,26.5336364 C101.875279,26.3216529 102.261592,26.0719835 102.666749,25.6652893 C103.073477,25.2601653 103.323167,24.8738843 103.532027,24.3321488 C103.692206,23.9254545 103.880651,23.3114876 103.932474,22.1809091 C103.989007,20.9608264 104,20.5933884 104,17.5 C104,14.4050413 103.989007,14.0391736 103.932474,12.8175207 C103.880651,11.6885124 103.692206,11.0745455 103.532027,10.6647107" id="Fill-12"></path>
                    <path d="M105.86925,21.8672 C105.81345,23.1248 105.6197,23.9824 105.33605,24.7344 C105.04465,25.5104 104.65405,26.168 104.01855,26.8256 C103.38305,27.4816 102.7429,27.8848 101.9927,28.1872 C101.2642,28.4784 100.4334,28.6784 99.2151,28.736 C97.99525,28.7936 97.6062,28.8064 94.5,28.8064 C91.3938,28.8064 91.0032,28.7936 89.78335,28.736 C88.5666,28.6784 87.7358,28.4784 87.0073,28.1872 C86.25555,27.8848 85.6185,27.4816 84.98145,26.8256 C84.34595,26.168 83.9538,25.5104 83.6624,24.7344 C83.37875,23.9824 83.18655,23.1248 83.13075,21.8672 C83.07495,20.608 83.06255,20.2064 83.06255,17 C83.06255,13.7936 83.07495,13.3904 83.13075,12.1328 C83.18655,10.8752 83.37875,10.0176 83.6624,9.2656 C83.9538,8.4896 84.34595,7.832 84.98145,7.1744 C85.6185,6.5184 86.25555,6.1136 87.0073,5.8128 C87.7358,5.5216 88.5666,5.3216 89.78335,5.264 C91.0032,5.2064 91.3938,5.1936 94.5,5.1936 C97.6062,5.1936 97.99525,5.2064 99.2151,5.264 C100.4334,5.3216 101.2642,5.5216 101.9927,5.8128 C102.7429,6.1136 103.38305,6.5184 104.01855,7.1744 C104.65405,7.832 105.04465,8.4896 105.33605,9.2656 C105.6197,10.0176 105.81345,10.8752 105.86925,12.1328 C105.9235,13.3904 105.93745,13.7936 105.93745,17 C105.93745,20.2064 105.9235,20.608 105.86925,21.8672 M106.9,1 L82.1,1 C80.39345,1 79,2.44 79,4.2 L79,29.8 C79,31.56 80.39345,33 82.1,33 L106.9,33 C108.605,33 110,31.56 110,29.8 L110,4.2 C110,2.44 108.605,1 106.9,1" id="Fill-14"></path>
                </g>
            </g>
        </g>
    </g>
</svg>
