
<svg width="27px" height="27px" viewBox="0 0 27 27" version="1.1" xmlns="http://www.w3.org/2000/svg" xmlns:xlink="http://www.w3.org/1999/xlink">
    <!-- Generator: Sketch 48.2 (47327) - http://www.bohemiancoding.com/sketch -->
    <desc>Created with Sketch.</desc>
    <defs></defs>
    <g id="WEBSITE" stroke="none" stroke-width="1" fill="none" fill-rule="evenodd">
        <g id="Mobile-Menu-Open" transform="translate(-147.000000, -479.000000)" fill="#FFFFFF">
            <g id="Page-1" transform="translate(69.000000, 479.000000)">
                <path d="M91.5,10 C89.5678862,10 88,11.5678862 88,13.5 C88,15.4321138 89.5678862,17 91.5,17 C93.4321138,17 95,15.4321138 95,13.5 C95,11.5678862 93.4321138,10 91.5,10" id="Fill-10"></path>
                <path d="M97.2083643,8.96165289 C96.5630217,8.96165289 96.0380197,8.43801653 96.0380197,7.79008264 C96.0380197,7.14479339 96.5630217,6.61983471 97.2083643,6.61983471 C97.8550293,6.61983471 98.3800314,7.14479339 98.3800314,7.79008264 C98.3800314,8.43801653 97.8550293,8.96165289 97.2083643,8.96165289 M92.0006612,18.0102479 C89.2328292,18.0102479 86.9886768,15.766281 86.9886768,13 C86.9886768,10.2323967 89.2328292,7.98975207 92.0006612,7.98975207 C94.7671708,7.98975207 97.0113232,10.2323967 97.0113232,13 C97.0113232,15.766281 94.7671708,18.0102479 92.0006612,18.0102479 M99.6059178,7.24396694 C99.4300355,6.78909091 99.2197702,6.46380165 98.8772626,6.12396694 C98.5360774,5.7814876 98.2107612,5.56991736 97.7545252,5.39272727 C97.4106951,5.25917355 96.89495,5.10049587 95.9428052,5.0568595 C94.9139598,5.01057851 94.6045128,5 92.0006612,5 C89.3941648,5 89.0847177,5.01057851 88.0558724,5.0568595 C87.10505,5.10049587 86.5893049,5.25917355 86.2441524,5.39272727 C85.7892388,5.56991736 85.4639226,5.7814876 85.1227374,6.12396694 C84.7815522,6.46380165 84.568642,6.78909091 84.3927597,7.24396694 C84.259195,7.58909091 84.1005042,8.1061157 84.0568642,9.0568595 C84.0105794,10.0856198 84,10.393719 84,13 C84,15.6049587 84.0105794,15.9143802 84.0568642,16.9418182 C84.1005042,17.8938843 84.259195,18.4109091 84.3927597,18.7533884 C84.568642,19.2095868 84.7815522,19.534876 85.1227374,19.8760331 C85.4639226,20.2185124 85.7892388,20.4287603 86.2441524,20.6072727 C86.5893049,20.7395041 87.10505,20.8981818 88.0558724,20.9431405 C89.0847177,20.9894215 89.3941648,21 92.0006612,21 C94.6058352,21 94.9152823,20.9894215 95.9428052,20.9431405 C96.89495,20.8981818 97.4106951,20.7395041 97.7545252,20.6072727 C98.2107612,20.4287603 98.5360774,20.2185124 98.8772626,19.8760331 C99.2197702,19.534876 99.4300355,19.2095868 99.6059178,18.7533884 C99.740805,18.4109091 99.8994958,17.8938843 99.9431358,16.9418182 C99.990743,15.9143802 100,15.6049587 100,13 C100,10.393719 99.990743,10.0856198 99.9431358,9.0568595 C99.8994958,8.1061157 99.740805,7.58909091 99.6059178,7.24396694" id="Fill-12"></path>
                <path d="M102.40225,17.6067 C102.35365,18.6678 102.1849,19.3914 101.93785,20.0259 C101.68405,20.68065 101.34385,21.2355 100.79035,21.79035 C100.23685,22.34385 99.6793,22.68405 99.0259,22.9392 C98.3914,23.1849 97.6678,23.35365 96.6067,23.40225 C95.54425,23.45085 95.2054,23.46165 92.5,23.46165 C89.7946,23.46165 89.4544,23.45085 88.39195,23.40225 C87.3322,23.35365 86.6086,23.1849 85.9741,22.9392 C85.31935,22.68405 84.7645,22.34385 84.20965,21.79035 C83.65615,21.2355 83.3146,20.68065 83.0608,20.0259 C82.81375,19.3914 82.64635,18.6678 82.59775,17.6067 C82.54915,16.54425 82.53835,16.2054 82.53835,13.5 C82.53835,10.7946 82.54915,10.4544 82.59775,9.3933 C82.64635,8.3322 82.81375,7.6086 83.0608,6.9741 C83.3146,6.31935 83.65615,5.7645 84.20965,5.20965 C84.7645,4.65615 85.31935,4.3146 85.9741,4.0608 C86.6086,3.8151 87.3322,3.64635 88.39195,3.59775 C89.4544,3.54915 89.7946,3.53835 92.5,3.53835 C95.2054,3.53835 95.54425,3.54915 96.6067,3.59775 C97.6678,3.64635 98.3914,3.8151 99.0259,4.0608 C99.6793,4.3146 100.23685,4.65615 100.79035,5.20965 C101.34385,5.7645 101.68405,6.31935 101.93785,6.9741 C102.1849,7.6086 102.35365,8.3322 102.40225,9.3933 C102.4495,10.4544 102.46165,10.7946 102.46165,13.5 C102.46165,16.2054 102.4495,16.54425 102.40225,17.6067 M102.3,0 L80.7,0 C79.21365,0 78,1.215 78,2.7 L78,24.3 C78,25.785 79.21365,27 80.7,27 L102.3,27 C103.785,27 105,25.785 105,24.3 L105,2.7 C105,1.215 103.785,0 102.3,0" id="Fill-14"></path>
            </g>
        </g>
    </g>
</svg>
