
<svg width="31px" height="32px" viewBox="0 0 31 32" version="1.1" xmlns="http://www.w3.org/2000/svg" xmlns:xlink="http://www.w3.org/1999/xlink">
    <!-- Generator: Sketch 48.2 (47327) - http://www.bohemiancoding.com/sketch -->
    <desc>Created with Sketch.</desc>
    <defs></defs>
    <g id="WEBSITE" stroke="none" stroke-width="1" fill="none" fill-rule="evenodd">
        <g id="Home-Copy-2" transform="translate(-1093.000000, -9489.000000)" fill="#AABACA">
            <g id="Footer" transform="translate(163.000000, 9132.000000)">
                <g id="Page-1" transform="translate(694.000000, 357.000000)">
                    <path d="M262.35,27.2 L257.7,27.2 L257.7,18.72 C257.7,17.44 256.615,16.32 255.375,16.32 C254.13345,16.32 253.05,17.44 253.05,18.72 L253.05,27.2 L248.4,27.2 L248.4,12.8 L253.05,12.8 L253.05,14.72 C253.825,13.44 255.53,12.48 256.925,12.48 C259.86845,12.48 262.35,15.04 262.35,18.08 L262.35,27.2 Z M242.975,10.08 C241.425,10.08 240.18345,8.8 240.18345,7.2 C240.18345,5.6 241.425,4.32 242.975,4.32 C244.525,4.32 245.765,5.6 245.765,7.2 C245.765,8.8 244.525,10.08 242.975,10.08 Z M240.65,27.2 L245.3,27.2 L245.3,12.8 L240.65,12.8 L240.65,27.2 Z M263.9,0 L239.1,0 C237.39345,0 236,1.44 236,3.2 L236,28.8 C236,30.56 237.39345,32 239.1,32 L263.9,32 C265.605,32 267,30.56 267,28.8 L267,3.2 C267,1.44 265.605,0 263.9,0 Z" id="Fill-6"></path>
                </g>
            </g>
        </g>
    </g>
</svg>
