
<svg width="27px" height="27px" viewBox="0 0 27 27" version="1.1" xmlns="http://www.w3.org/2000/svg" xmlns:xlink="http://www.w3.org/1999/xlink">
    <!-- Generator: Sketch 48.2 (47327) - http://www.bohemiancoding.com/sketch -->
    <desc>Created with Sketch.</desc>
    <defs></defs>
    <g id="WEBSITE" stroke="none" stroke-width="1" fill="none" fill-rule="evenodd">
        <g id="Mobile-Menu-Open" transform="translate(-69.000000, -479.000000)" fill="#FFFFFF">
            <g id="Page-1" transform="translate(69.000000, 479.000000)">
                <path d="M23,23 L19,23 L19,16.0869565 C19,15.0434783 18.0666667,14.1304348 17,14.1304348 C15.932,14.1304348 15,15.0434783 15,16.0869565 L15,23 L11,23 L11,11.2608696 L15,11.2608696 L15,12.826087 C15.6666667,11.7826087 17.1333333,11 18.3333333,11 C20.8653333,11 23,13.0869565 23,15.5652174 L23,23 Z M6.50069425,9 C5.11219106,9 4,7.88888889 4,6.5 C4,5.11111111 5.11219106,4 6.50069425,4 C7.88919745,4 9,5.11111111 9,6.5 C9,7.88888889 7.88919745,9 6.50069425,9 Z M4,23 L8,23 L8,11 L4,11 L4,23 Z M24.3,0 L2.7,0 C1.21365,0 0,1.215 0,2.7 L0,24.3 C0,25.785 1.21365,27 2.7,27 L24.3,27 C25.785,27 27,25.785 27,24.3 L27,2.7 C27,1.215 25.785,0 24.3,0 Z" id="Fill-6"></path>
            </g>
        </g>
    </g>
</svg>
