
<svg width="210px" height="36px" viewBox="0 0 210 36" version="1.1" xmlns="http://www.w3.org/2000/svg" xmlns:xlink="http://www.w3.org/1999/xlink">
    <!-- Generator: Sketch 48.2 (47327) - http://www.bohemiancoding.com/sketch -->
    <desc>Created with Sketch.</desc>
    <defs></defs>
    <g id="WEBSITE" stroke="none" stroke-width="1" fill="none" fill-rule="evenodd">
        <g id="Home-Copy-2" transform="translate(-135.000000, -64.000000)">
            <g id="HEADER-Copy" transform="translate(135.000000, 58.000000)">
                <g id="LOGO" transform="translate(0.000000, 6.000000)">
                    <g id="Group-10" transform="translate(59.000000, 6.000000)" fill="#062733" fill-rule="nonzero">
                        <path d="M17.0286112,15.8106122 C17.0286112,20.3608163 13.8869821,23.5885714 9.50833664,23.5885714 C7.75833631,23.6362691 6.06911016,22.9464242 4.85479863,21.6881633 L4.79589308,21.6881633 L4.79589308,23.1036735 L0.323980495,23.1036735 L0.323980495,1.79265306 L4.85479863,0.323265306 L4.85479863,9.89877551 L4.90879538,9.89877551 C6.13394081,8.65653208 7.81586306,7.96967001 9.56233339,7.99836735 C13.9164349,8.00326531 17.0286112,11.2261224 17.0286112,15.8106122 Z M12.5566986,15.8106122 C12.5566986,13.2783673 10.9564313,11.5297959 8.68856782,11.5297959 C6.42070435,11.5297959 4.85479863,13.2783673 4.85479863,15.8106122 C4.85479863,18.3428571 6.42561315,20.0816327 8.69347661,20.0816327 C10.9613401,20.0816327 12.5566986,18.3085714 12.5566986,15.8106122 Z" id="Shape"></path>
                        <path d="M19.3553802,15.8106122 C19.3553802,11.2310204 22.4675564,8.00326531 26.8756547,8.00326531 C28.6240982,7.96401838 30.3100532,8.65252735 31.5291927,9.90367347 L31.5880982,9.90367347 L36.0600108,7.99836735 L36.0600108,23.1036735 L31.5880982,23.1036735 L31.5880982,21.6881633 L31.5291927,21.6881633 C30.3070226,22.9348243 28.6231076,23.6225001 26.8756547,23.5885714 C22.4675564,23.5836735 19.3553802,20.3608163 19.3553802,15.8106122 Z M31.4997399,15.8106122 C31.4997399,13.2783673 29.9583782,11.5297959 27.6954235,11.5297959 C25.4324688,11.5297959 23.79784,13.2783673 23.79784,15.8106122 C23.79784,18.3428571 25.3981073,20.0816327 27.6905147,20.0816327 C29.9829222,20.0816327 31.4997399,18.3085714 31.4997399,15.8106122 Z" id="Shape"></path>
                        <path d="M39.1132816,15.8106122 C39.1132816,11.1085714 42.436536,8.00326531 47.4189633,8.00326531 C51.6159834,8.00326531 54.6987069,10.3836735 55.1208633,14.0620408 L50.8305761,14.0620408 C50.5262308,12.7640816 49.4119343,11.6522449 47.3944194,11.6522449 C45.0087448,11.6522449 43.4379303,13.3077551 43.4379303,15.8106122 C43.4379303,18.3134694 45.0087448,19.9395918 47.3944194,19.9395918 C49.3873903,19.9395918 50.5065956,18.8228571 50.8305761,17.5297959 L55.1208633,17.5297959 C54.6987069,21.237551 51.6159834,23.5885714 47.4189633,23.5885714 C42.436536,23.5836735 39.1132816,20.4783673 39.1132816,15.8106122 Z" id="Shape"></path>
                        <polygon id="Shape" points="58.2035868 1.79265306 62.7344049 0.323265306 62.7344049 15.8106122 68.9587574 8.46367347 74.1228102 8.46367347 67.9279104 15.8106122 75.0260285 23.1036735 69.3514611 23.1036735 62.7344049 16.32 62.7344049 23.1036735 58.2035868 23.1036735"></polygon>
                        <path d="M93.8807116,15.8106122 C93.8807116,20.3608163 90.7390825,23.5885714 86.3604371,23.5885714 C84.6104367,23.6362691 82.9212106,22.9464242 81.706899,21.6881633 L81.6479935,21.6881633 L81.6479935,23.1036735 L77.1760809,23.1036735 L77.1760809,1.79265306 L81.706899,0.323265306 L81.706899,9.89877551 L81.7658046,9.89877551 C82.9858559,8.66452403 84.6575289,7.97999664 86.3947986,8.00326531 C90.7685353,8.00326531 93.8807116,11.2261224 93.8807116,15.8106122 Z M89.408799,15.8106122 C89.408799,13.2783673 87.8085317,11.5297959 85.5406682,11.5297959 C83.2728048,11.5297959 81.7019902,13.2783673 81.7019902,15.8106122 C81.7019902,18.3428571 83.2728048,20.0620408 85.5406682,20.0620408 C87.8085317,20.0620408 89.408799,18.3085714 89.408799,15.8106122 Z" id="Shape"></path>
                        <path d="M96.2123894,15.8106122 C96.2123894,11.1085714 99.5356439,8.00326531 104.518071,8.00326531 C109.500498,8.00326531 112.823753,11.1085714 112.823753,15.8106122 C112.823753,20.5126531 109.500498,23.5885714 104.518071,23.5885714 C99.5356439,23.5885714 96.2123894,20.4783673 96.2123894,15.8106122 Z M108.484378,15.8106122 C108.484378,13.3616327 106.884111,11.7404082 104.498436,11.7404082 C102.112761,11.7404082 100.512494,13.3665306 100.512494,15.8106122 C100.512494,18.2546939 102.112761,19.8514286 104.498436,19.8514286 C106.884111,19.8514286 108.484378,18.2497959 108.484378,15.8106122 Z" id="Shape"></path>
                        <path d="M115.901568,7.99346939 L120.37348,9.89877551 L120.432386,9.89877551 C121.619773,8.67536741 123.256407,7.98889691 124.963204,7.99836735 C128.796973,7.99836735 131.516446,10.7412245 131.516446,14.6595918 L131.516446,23.1036735 L126.956175,23.1036735 L126.956175,15.2669388 C126.956175,13.2146939 125.719158,11.8383673 123.785093,11.8383673 C121.762669,11.8383673 120.432386,13.1069388 120.432386,15.0955102 L120.432386,23.1036735 L115.901568,23.1036735 L115.901568,7.99346939 Z" id="Shape"></path>
                        <path d="M134.358638,15.8106122 C134.358638,11.1085714 137.588626,8.00326531 142.394336,8.00326531 C147.200047,8.00326531 150.277862,10.9861224 150.277862,15.9330612 L150.277862,17.2310204 L138.771645,17.2310204 C139.209768,19.0077426 140.836611,20.2343811 142.669229,20.1697959 C143.817887,20.1697959 144.995998,19.7485714 145.540874,18.964898 L150.042239,18.964898 C149.227379,21.7371429 146.203561,23.6081633 142.580871,23.6081633 C137.65244,23.5836735 134.358638,20.4783673 134.358638,15.8106122 Z M145.958122,14.5469388 C145.947592,13.6618208 145.57431,12.8196034 144.925146,12.2162884 C144.275982,11.6129733 143.407555,11.3011801 142.521965,11.3534694 C140.624901,11.2824725 138.987197,12.6679419 138.747101,14.5469388 L145.958122,14.5469388 Z" id="Shape"></path>
                    </g>
                    <g id="Group-9">
                        <polygon id="Fill-1" fill="#00B8FF" points="0 0 0 3.54186802 18.572201 15.578555 26.7454592 9.44484256 19.706893 0"></polygon>
                        <polygon id="Fill-2" fill="#88DDFF" points="0 29.6867342 0 35.5897087 22.5220215 35.5897087 30.9679037 23.7841762 30.9679037 23.7833432 18.572201 15.75"></polygon>
                        <polygon id="Fill-3" fill="#0055FF" points="0 29.7234212 18.572201 15.7866869 0 3.75"></polygon>
                    </g>
                </g>
            </g>
        </g>
    </g>
</svg>
