
<svg width="128px" height="22px" viewBox="0 0 128 22" version="1.1" xmlns="http://www.w3.org/2000/svg" xmlns:xlink="http://www.w3.org/1999/xlink">
    <!-- Generator: Sketch 48.2 (47327) - http://www.bohemiancoding.com/sketch -->
    <desc>Created with Sketch.</desc>
    <defs></defs>
    <g id="WEBSITE" stroke="none" stroke-width="1" fill="none" fill-rule="evenodd">
        <g id="Mobile-Menu-Open" transform="translate(-25.000000, -20.000000)">
            <g id="LOGO-Copy" transform="translate(25.000000, 20.000000)">
                <g id="Group-10" transform="translate(35.000000, 3.000000)" fill="#FFFFFF" fill-rule="nonzero">
                    <path d="M10.4878201,9.22285714 C10.4878201,11.8771429 8.55290952,13.76 5.85612787,13.76 C4.77831309,13.7878236 3.73792877,13.3854141 2.99004154,12.6514286 L2.95376196,12.6514286 L2.95376196,13.4771429 L0.199537656,13.4771429 L0.199537656,1.04571429 L2.99004154,0.188571429 L2.99004154,5.77428571 L3.02329781,5.77428571 C3.77785758,5.04964371 4.81374348,4.64897417 5.88938414,4.66571429 C8.5710493,4.66857143 10.4878201,6.54857143 10.4878201,9.22285714 Z M7.73359581,9.22285714 C7.73359581,7.74571429 6.74800072,6.72571429 5.35123713,6.72571429 C3.95447354,6.72571429 2.99004154,7.74571429 2.99004154,9.22285714 C2.99004154,10.7 3.95749684,11.7142857 5.35426043,11.7142857 C6.75102402,11.7142857 7.73359581,10.68 7.73359581,9.22285714 Z" id="Shape"></path>
                    <path d="M11.9208633,9.22285714 C11.9208633,6.55142857 13.8376341,4.66857143 16.5525555,4.66857143 C17.6294115,4.64567739 18.6677811,5.04730762 19.4186419,5.77714286 L19.4549214,5.77714286 L22.2091457,4.66571429 L22.2091457,13.4771429 L19.4549214,13.4771429 L19.4549214,12.6514286 L19.4186419,12.6514286 C18.6659146,13.3786475 17.6288014,13.7797918 16.5525555,13.76 C13.8376341,13.7571429 11.9208633,11.8771429 11.9208633,9.22285714 Z M19.4005021,9.22285714 C19.4005021,7.74571429 18.4511866,6.72571429 17.0574463,6.72571429 C15.663706,6.72571429 14.6569478,7.74571429 14.6569478,9.22285714 C14.6569478,10.7 15.6425429,11.7142857 17.054423,11.7142857 C18.4663031,11.7142857 19.4005021,10.68 19.4005021,9.22285714 Z" id="Shape"></path>
                    <path d="M24.089637,9.22285714 C24.089637,6.48 26.1364096,4.66857143 29.2050569,4.66857143 C31.7899765,4.66857143 33.6886075,6.05714286 33.9486112,8.20285714 L31.3062489,8.20285714 C31.1188044,7.44571429 30.4325158,6.79714286 29.1899404,6.79714286 C27.7206177,6.79714286 26.7531624,7.76285714 26.7531624,9.22285714 C26.7531624,10.6828571 27.7206177,11.6314286 29.1899404,11.6314286 C30.4173993,11.6314286 31.1067112,10.98 31.3062489,10.2257143 L33.9486112,10.2257143 C33.6886075,12.3885714 31.7899765,13.76 29.2050569,13.76 C26.1364096,13.7571429 24.089637,11.9457143 24.089637,9.22285714 Z" id="Shape"></path>
                    <polygon id="Shape" points="35.8472422 1.04571429 38.6377461 0.188571429 38.6377461 9.22285714 42.4712877 4.93714286 45.651797 4.93714286 41.8363952 9.22285714 46.2080838 13.4771429 42.7131515 13.4771429 38.6377461 9.52 38.6377461 13.4771429 35.8472422 13.4771429"></polygon>
                    <path d="M57.8205707,9.22285714 C57.8205707,11.8771429 55.8856601,13.76 53.1888785,13.76 C52.1110637,13.7878236 51.0706794,13.3854141 50.3227921,12.6514286 L50.2865126,12.6514286 L50.2865126,13.4771429 L47.5322882,13.4771429 L47.5322882,1.04571429 L50.3227921,0.188571429 L50.3227921,5.77428571 L50.3590717,5.77428571 C51.110494,5.05430568 52.1400675,4.65499804 53.2100415,4.66857143 C55.9037999,4.66857143 57.8205707,6.54857143 57.8205707,9.22285714 Z M55.0663464,9.22285714 C55.0663464,7.74571429 54.0807513,6.72571429 52.6839877,6.72571429 C51.2872241,6.72571429 50.3197688,7.74571429 50.3197688,9.22285714 C50.3197688,10.7 51.2872241,11.7028571 52.6839877,11.7028571 C54.0807513,11.7028571 55.0663464,10.68 55.0663464,9.22285714 Z" id="Shape"></path>
                    <path d="M59.2566372,9.22285714 C59.2566372,6.48 61.3034098,4.66857143 64.3720571,4.66857143 C67.4407044,4.66857143 69.487477,6.48 69.487477,9.22285714 C69.487477,11.9657143 67.4407044,13.76 64.3720571,13.76 C61.3034098,13.76 59.2566372,11.9457143 59.2566372,9.22285714 Z M66.8148817,9.22285714 C66.8148817,7.79428571 65.8292866,6.84857143 64.3599639,6.84857143 C62.8906411,6.84857143 61.9050461,7.79714286 61.9050461,9.22285714 C61.9050461,10.6485714 62.8906411,11.58 64.3599639,11.58 C65.8292866,11.58 66.8148817,10.6457143 66.8148817,9.22285714 Z" id="Shape"></path>
                    <path d="M71.3830847,4.66285714 L74.137309,5.77428571 L74.1735886,5.77428571 C74.9048932,5.06063099 75.9128865,4.66018986 76.9640925,4.66571429 C79.3252881,4.66571429 81.0001951,6.26571429 81.0001951,8.55142857 L81.0001951,13.4771429 L78.1915514,13.4771429 L78.1915514,8.90571429 C78.1915514,7.70857143 77.4296803,6.90571429 76.238501,6.90571429 C74.9929023,6.90571429 74.1735886,7.64571429 74.1735886,8.80571429 L74.1735886,13.4771429 L71.3830847,13.4771429 L71.3830847,4.66285714 Z" id="Shape"></path>
                    <path d="M82.7506845,9.22285714 C82.7506845,6.48 84.7400144,4.66857143 87.699823,4.66857143 C90.6596316,4.66857143 92.5552393,6.40857143 92.5552393,9.29428571 L92.5552393,10.0514286 L85.4686292,10.0514286 C85.7384666,11.0878499 86.7404294,11.803389 87.8691277,11.7657143 C88.5765794,11.7657143 89.3021709,11.52 89.6377569,11.0628571 L92.410121,11.0628571 C91.9082536,12.68 90.0459021,13.7714286 87.8147083,13.7714286 C84.7793173,13.7571429 82.7506845,11.9457143 82.7506845,9.22285714 Z M89.8947372,8.48571429 C89.8882519,7.96939545 89.6583497,7.47810197 89.2585335,7.12616821 C88.8587173,6.77423444 88.3238581,6.59235503 87.7784288,6.62285714 C86.6100384,6.5814423 85.6013861,7.38963279 85.4535127,8.48571429 L89.8947372,8.48571429 Z" id="Shape"></path>
                </g>
                <g id="Group-9">
                    <polygon id="Fill-1" fill="#FFFFFF" points="0 0 0 2.27355363 11.1104922 10 16 6.06272056 11.7893017 0"></polygon>
                    <polygon id="Fill-2" fill="#88DDFF" points="0 18.4296001 0 22 13.8181264 22 19 14.8594521 19 14.8589483 11.3947596 10"></polygon>
                    <polygon id="Fill-3" fill="#0055FF" points="0 19 11 9.87819505 0 2"></polygon>
                </g>
            </g>
        </g>
    </g>
</svg>
