
<svg width="31px" height="32px" viewBox="0 0 31 32" version="1.1" xmlns="http://www.w3.org/2000/svg" xmlns:xlink="http://www.w3.org/1999/xlink">
    <!-- Generator: Sketch 48.2 (47327) - http://www.bohemiancoding.com/sketch -->
    <desc>Created with Sketch.</desc>
    <defs></defs>
    <g id="WEBSITE" stroke="none" stroke-width="1" fill="none" fill-rule="evenodd">
        <g id="Home-Copy-2" transform="translate(-1173.000000, -9489.000000)" fill="#AABACA">
            <g id="Footer" transform="translate(163.000000, 9132.000000)">
                <g id="Page-1" transform="translate(694.000000, 357.000000)">
                    <path d="M341.753226,7.58185365 L340.091127,9.22562897 C339.946934,9.3408693 339.875613,9.52493373 339.906622,9.70739759 L339.906622,21.7996299 C339.875613,21.9820937 339.946934,22.1677587 340.091127,22.2813985 L341.714464,23.9267744 L341.714464,24.288501 L333.548164,24.288501 L333.548164,23.9267744 L335.230419,22.2397839 C335.394768,22.0701245 335.394768,22.0205072 335.394768,21.7580153 L335.394768,11.9865953 L330.718566,24.2468864 L330.087526,24.2468864 L324.642293,11.9865953 L324.642293,20.2038714 C324.597329,20.5495924 324.707412,20.8969139 324.943083,21.1466013 L327.130789,23.8867604 L327.130789,24.2468864 L320.927378,24.2468864 L320.927378,23.8867604 L323.115085,21.1466013 C323.349205,20.8953134 323.454636,20.5463912 323.397269,20.2038714 L323.397269,10.7013455 C323.423627,10.437253 323.325948,10.1763617 323.135241,10.0003001 L321.190957,7.58185365 L321.190957,7.22012704 L327.228469,7.22012704 L331.895369,17.7854249 L335.997899,7.22012704 L341.753226,7.22012704 L341.753226,7.58185365 Z M343.781234,0 L319.218766,0 C317.440382,0 316,1.48692042 316,3.32276297 L316,28.677237 C316,30.5130796 317.440382,32 319.218766,32 L343.781234,32 C345.558067,32 347,30.5130796 347,28.677237 L347,3.32276297 C347,1.48692042 345.558067,0 343.781234,0 Z" id="Fill-4"></path>
                </g>
            </g>
        </g>
    </g>
</svg>
