
<svg width="27px" height="27px" viewBox="0 0 27 27" version="1.1" xmlns="http://www.w3.org/2000/svg" xmlns:xlink="http://www.w3.org/1999/xlink">
    <!-- Generator: Sketch 48.2 (47327) - http://www.bohemiancoding.com/sketch -->
    <desc>Created with Sketch.</desc>
    <defs></defs>
    <g id="WEBSITE" stroke="none" stroke-width="1" fill="none" fill-rule="evenodd">
        <g id="Mobile-Menu-Open" transform="translate(-225.000000, -479.000000)" fill="#FFFFFF">
            <g id="Page-1" transform="translate(69.000000, 479.000000)">
                <path d="M178.430229,6.39718902 L176.982595,7.78412444 C176.857007,7.88135848 176.794888,8.03666283 176.821897,8.19061672 L176.821897,18.3934377 C176.794888,18.5473916 176.857007,18.7040464 176.982595,18.79993 L178.396469,20.1882159 L178.396469,20.4934227 L171.283885,20.4934227 L171.283885,20.1882159 L172.749075,18.7648177 C172.892218,18.6216676 172.892218,18.5798029 172.892218,18.3583254 L172.892218,10.1136898 L168.819396,20.4583104 L168.269781,20.4583104 L163.527158,10.1136898 L163.527158,17.0470165 C163.487996,17.3387186 163.583875,17.6317711 163.789137,17.8424449 L165.694558,20.1544541 L165.694558,20.4583104 L160.291587,20.4583104 L160.291587,20.1544541 L162.197009,17.8424449 C162.40092,17.6304206 162.492748,17.3360176 162.442783,17.0470165 L162.442783,9.02926024 C162.46574,8.80643225 162.380664,8.58630521 162.214564,8.43775321 L160.521156,6.39718902 L160.521156,6.09198219 L165.779634,6.09198219 L169.844353,15.0064523 L173.417525,6.09198219 L178.430229,6.09198219 L178.430229,6.39718902 Z M180.196559,0 L158.803441,0 C157.254526,0 156,1.25458911 156,2.80358125 L156,24.1964187 C156,25.7454109 157.254526,27 158.803441,27 L180.196559,27 C181.744123,27 183,25.7454109 183,24.1964187 L183,2.80358125 C183,1.25458911 181.744123,0 180.196559,0 Z" id="Fill-4"></path>
            </g>
        </g>
    </g>
</svg>
