
<svg width="31px" height="32px" viewBox="0 0 31 32" version="1.1" xmlns="http://www.w3.org/2000/svg" xmlns:xlink="http://www.w3.org/1999/xlink">
    <!-- Generator: Sketch 48.2 (47327) - http://www.bohemiancoding.com/sketch -->
    <desc>Created with Sketch.</desc>
    <defs></defs>
    <g id="WEBSITE" stroke="none" stroke-width="1" fill="none" fill-rule="evenodd">
        <g id="Home-Copy-2" transform="translate(-1246.000000, -9489.000000)">
            <g id="Footer" transform="translate(163.000000, 9132.000000)">
                <g id="Page-1" transform="translate(694.000000, 357.000000)">
                    <path d="M392.218766,0 C390.441933,0 389,1.48852098 389,3.32276297 L389,28.677237 C389,30.5130796 390.441933,32 392.218766,32 L416.781234,32 C418.558067,32 420,30.5130796 420,28.677237 L420,3.32276297 C420,1.48852098 418.558067,0 416.781234,0 L392.218766,0 Z" id="Fill-16" fill="#AABACA"></path>
                    <path d="M401.138999,6.17509211 C401.271759,6.86898719 401.444211,7.54842613 401.627612,8.22465259 C402.061479,9.8180413 402.55146,11.3857302 403.05376,12.9502066 C403.057866,12.966269 403.064709,12.9807251 403.072921,13 C403.08387,12.9903626 403.090714,12.9855439 403.09482,12.9791189 C403.183783,12.8136763 403.317912,12.7317582 403.478046,12.6996334 C403.617649,12.6691148 403.757253,12.6610837 403.898226,12.6739336 C404.2007,12.6996334 404.503175,12.7269394 404.807018,12.7542455 C404.86724,12.7606704 404.928829,12.7654892 405,12.7703079 C404.989051,12.7269394 404.982207,12.6996334 404.973995,12.6707211 C404.663309,11.6186348 404.353991,10.5649423 404.041935,9.51285596 C403.757253,8.55071903 403.472571,7.59018833 403.181046,6.62965764 C403.016806,6.0915677 402.837511,5.55990272 402.625368,5.04430012 C402.537774,4.83067039 402.441967,4.62185937 402.31605,4.43392945 C402.232562,4.30864283 402.136755,4.19620613 402.020419,4.11268172 C401.863022,4.00185126 401.696045,3.97133272 401.519488,4.02755108 C401.293658,4.09983181 401.156792,4.28133678 401.070566,4.52869753 C401.007607,4.70859625 400.996658,4.89973865 401.000764,5.09248728 C401.010345,5.46031592 401.070566,5.81850714 401.138999,6.17509211" id="Fill-18" fill="#FFFFFF"></path>
                    <path d="M400.286034,17.5663509 C400.475418,18.0727729 400.694842,18.5516346 400.944305,19.0115484 C401.296951,19.6661075 401.662657,20.3103315 402.087137,20.8890995 C402.313091,21.1974313 402.552106,21.4850928 402.823774,21.7228011 C402.940016,21.82443 403.061483,21.9122787 403.197316,21.965677 C403.343599,22.0225203 403.485963,22.0121851 403.620491,21.9088337 C403.785058,21.7761993 403.901301,21.5918893 403.965299,21.3524585 C404.004482,21.212934 404.009706,21.068242 403.984891,20.9252725 C403.960075,20.7736904 403.932647,20.6238308 403.897382,20.4774163 C403.628327,19.3836136 403.278294,18.3345965 402.843365,17.3372552 C402.652675,16.8980116 402.456761,16.4656581 402.219052,16.067755 C402.054485,15.7887062 401.872938,15.5268825 401.65482,15.3150121 C401.532047,15.1978805 401.401438,15.0996966 401.25385,15.0445758 C401.073609,14.9739524 400.89598,14.9808424 400.731412,15.1117543 C400.451908,15.3339599 400.232485,15.633679 400.082284,16.0178019 C400.032652,16.1452686 400.007837,16.2830705 400,16.4294851 C400.018285,16.5517843 400.031346,16.675806 400.054856,16.7963827 C400.1071,17.0650964 400.194608,17.3165849 400.286034,17.5663509" id="Fill-20" fill="#FFFFFF"></path>
                    <path d="M409.901662,13.9278996 C409.938868,13.8050011 409.977453,13.6821026 410.016037,13.5575655 C410.528659,11.8845078 411.031635,10.2065341 411.480868,8.50725798 C411.65312,7.85835409 411.822616,7.20617291 411.943881,6.53924391 C411.97971,6.34916095 412.008648,6.15743935 411.997624,5.95916316 C411.983844,5.72319811 411.945259,5.49706493 411.825372,5.30206604 C411.677924,5.06446234 411.475356,4.97597545 411.231447,5.00547108 C411.11156,5.01858025 411.010965,5.08576474 410.915882,5.1660584 C410.794616,5.27420905 410.695399,5.40530075 410.605828,5.54786297 C410.428064,5.82807146 410.288884,6.13285966 410.162107,6.44911837 C409.905796,7.08982903 409.700472,7.75348073 409.506171,8.42532567 L408.024804,13.518238 C408.016536,13.5477337 408.009646,13.5755906 408,13.6116409 C408.629753,13.7410939 409.251238,13.870547 409.87548,14 C409.885126,13.972143 409.893394,13.9508406 409.901662,13.9278996" id="Fill-22" fill="#FFFFFF"></path>
                    <path d="M405.629787,20 C406.031003,19.398827 406.480851,18.8782991 407,18.4457478 C406.88693,18.4354839 406.775076,18.4252199 406.664438,18.4134897 C406.11003,18.3577713 405.567781,18.2360704 405.043769,18.0102639 C405.029179,18.0043988 405.01459,18.0029326 405,18 C405.117933,18.3255132 405.237082,18.6480938 405.348936,18.973607 C405.46079,19.3005865 405.549544,19.6392962 405.629787,20" id="Fill-24" fill="#FFFFFF"></path>
                    <path d="M411.944043,17.119894 C411.913146,16.8302442 411.864593,16.545317 411.782199,16.2682607 C411.658609,15.8621213 411.433498,15.5457104 411.089212,15.3268989 C410.892056,15.2041126 410.687544,15.0954939 410.477146,15.0041913 C410.019569,14.8058441 409.548749,14.6625934 409.072044,14.5366587 C408.412897,14.3619244 407.746393,14.2312671 407.072533,14.1431129 C406.75473,14.1037583 406.433984,14.075423 406.113238,14.0486618 C405.657132,14.0093073 405.198083,13.9951396 404.740505,14.0014363 C404.565419,14.0045847 404.394747,14.0250491 404.228489,14.0832939 C403.996021,14.1635772 403.853304,14.3320149 403.804751,14.5870326 C403.729714,14.9711334 403.775325,15.3410665 403.945997,15.6905353 C404.094599,15.9927785 404.325595,16.2115901 404.597788,16.3831761 C404.883222,16.562633 405.193669,16.6791226 405.514414,16.7672769 C406.013189,16.905805 406.520791,16.9797916 407.032807,17.0270171 C407.60809,17.0821136 408.183372,17.1041521 408.760126,17.102578 L409.551692,17.102578 C409.734134,17.102578 409.878323,17.1860097 409.963659,17.3575957 C410.010741,17.4504725 410.047524,17.5512203 410.069593,17.6535422 C410.109319,17.8440184 410.141687,17.7999413 409.972487,17.9305985 C409.803286,18.0612557 409.614958,18.1604293 409.423688,18.2485836 C409.12354,18.3855376 408.818979,18.5130464 408.520303,18.6515746 C408.227512,18.7869544 407.942077,18.9412244 407.683127,19.1427198 C407.252033,19.4811693 406.866549,19.873141 406.536976,20.3265059 C406.189746,20.8050577 405.905783,21.3213899 405.724812,21.9006894 C405.579152,22.3776671 405.533541,22.8609414 405.612992,23.3599576 C405.660074,23.6543299 405.736582,23.9424055 405.820447,24.2304811 C405.90284,24.51226 405.979349,24.7971872 406.051443,25.0836886 C406.083812,25.2111975 406.077926,25.3450031 406.032316,25.4740861 C406.020545,25.4740861 406.008775,25.4772345 405.998476,25.4772345 C405.98082,25.4756603 405.966107,25.4756603 405.949922,25.4725119 C405.729226,25.4363057 405.533541,25.3481514 405.359927,25.1954556 C405.183369,25.0396115 405.050951,24.8459869 404.943546,24.6318979 C404.721378,24.1911265 404.618386,23.7125747 404.562476,23.2198553 C404.530107,22.9254829 404.521279,22.6279623 404.522751,22.3320157 C404.522751,22.3068288 404.518337,22.2832161 404.516866,22.248584 C404.491853,22.2690484 404.475669,22.2800677 404.459484,22.2926612 C404.315296,22.4138733 404.15198,22.4673955 403.969538,22.462673 C403.820935,22.4563762 403.675276,22.4248926 403.532558,22.3839638 C403.510489,22.3760929 403.486948,22.3745187 403.463407,22.3697961 C403.488419,22.5193436 403.514903,22.6594459 403.532558,22.8011224 C403.586997,23.2403197 403.485477,23.629143 403.207399,23.9597215 C402.791018,24.4492926 402.271645,24.6130077 401.669879,24.5154083 C401.335891,24.4618861 401.028387,24.3312289 400.742953,24.1470494 C400.217695,23.8085999 399.777773,23.3709769 399.407002,22.8530705 C399.261343,22.6484266 399.140695,22.4280409 399.050945,22.1903392 C398.936183,21.8786509 398.878802,21.5575174 398.924412,21.2237905 C398.94354,21.0884107 398.984736,20.962476 399.086257,20.8601541 C399.106855,20.8884894 399.125982,20.9121022 399.145109,20.9372891 C399.358449,21.2316614 399.573261,21.5276079 399.783658,21.8235545 C399.9764,22.0958882 400.179441,22.3572027 400.410437,22.5949044 C400.591408,22.7790839 400.787092,22.9459473 401.007789,23.0734562 C401.228485,23.1978167 401.459481,23.2765259 401.711075,23.2592099 C401.977383,23.2418938 402.186309,23.1096624 402.348153,22.8877025 C402.42319,22.7838064 402.454088,22.6625943 402.420247,22.5319371 C402.395235,22.4280409 402.365809,22.3272932 402.329026,22.2296938 C402.233391,21.9919921 402.112743,21.7668838 401.984739,21.5480723 C401.627211,20.9404375 401.21083,20.3784539 400.776793,19.8322122 C400.570809,19.5693236 400.351584,19.3174542 400.104404,19.0939202 C399.986699,18.9884499 399.863109,18.8908505 399.723334,18.8200122 C399.607101,18.7617674 399.487925,18.749174 399.361392,18.7696383 C399.115683,18.8058446 398.909699,18.9254825 398.730199,19.1033653 C398.272622,19.5488592 398.034269,20.1061202 398.003372,20.7657031 C397.981302,21.236384 398.069581,21.6881747 398.209355,22.1320944 C398.402097,22.7397293 398.683117,23.3001386 399.02299,23.8274901 C399.424658,24.452441 399.883707,25.0238696 400.445748,25.4914022 C401.453596,26.3367387 402.601219,26.810568 403.87096,26.9522445 C404.563947,27.0309537 405.258406,27.0136377 405.948451,26.8908513 C406.847422,26.7302846 407.684598,26.3934093 408.446737,25.8566127 C409.570819,25.0647984 410.431536,24.0179663 411.055372,22.7476002 C411.623298,21.5874269 411.902847,20.3422477 411.976412,19.0388237 C412.013195,18.398131 412.010252,17.7590125 411.944043,17.119894" id="Fill-26" fill="#FFFFFF"></path>
                    <path d="M405,12.7703275 C404.987683,12.7269628 404.980841,12.698053 404.972629,12.6707493 C404.663342,11.617147 404.352687,10.5651508 404.042031,9.51315458 C403.757377,8.55110004 403.472724,7.5890455 403.181227,6.63020316 C403.017004,6.0921593 402.837727,5.56053985 402.625605,5.0433753 C402.53802,4.83136996 402.442223,4.62257682 402.316318,4.434663 C402.232838,4.30778101 402.137041,4.19535394 402.019348,4.11183668 C401.863336,4.00262181 401.696375,3.97049979 401.519835,4.02831943 C401.294028,4.10059398 401.155807,4.2820834 401.070959,4.52781686 C401.008006,4.70770018 400.99569,4.90043231 401.001164,5.09316444 C401.010743,5.45935548 401.070959,5.81912212 401.139385,6.17567656 C401.270764,6.86790612 401.443198,7.54889297 401.627949,8.22506152 C402.061772,9.81670768 402.551705,11.3858684 403.053954,12.9486048 C403.05806,12.9646658 403.064903,12.9807268 403.073114,13 C403.084062,12.9903634 403.089536,12.9855451 403.093642,12.9791207 C403.183964,12.8120862 403.31808,12.7317811 403.478198,12.698053 C403.616419,12.6691432 403.757377,12.6611127 403.896967,12.6723554 C404.20078,12.698053 404.503225,12.7269628 404.805669,12.7526604 C404.865884,12.7590848 404.927468,12.7639031 405,12.7703275" id="Fill-28" fill="#FFFFFF"></path>
                    <path d="M400.731396,15.1117559 C400.451899,15.3339648 400.23248,15.6336884 400.082282,16.0160944 C400.032652,16.1452857 400.007836,16.2830896 400,16.4295063 C400.018285,16.5518074 400.031346,16.6758309 400.054855,16.7964094 C400.107097,17.0651271 400.194604,17.3166194 400.286028,17.566389 C400.475408,18.0728186 400.696133,18.5516874 400.944285,19.0116081 C401.298229,19.6661769 401.662621,20.3104105 402.087092,20.8891871 C402.313041,21.1975235 402.553357,21.4851893 402.825019,21.7229011 C402.939953,21.822809 403.061417,21.9123816 403.197247,21.9657806 C403.343527,22.0226247 403.485888,22.0122894 403.620412,21.9072139 C403.784977,21.7763002 403.901216,21.5919874 403.96652,21.352553 C404.004396,21.2130264 404.00962,21.0683323 403.984805,20.9253607 C403.959989,20.7737763 403.932562,20.6239145 403.897298,20.4774978 C403.628249,19.3819563 403.278223,18.3346461 402.843304,17.33729 C402.652618,16.8980398 402.456708,16.4656799 402.220311,16.0677709 C402.05444,15.7887179 401.872897,15.5268904 401.654784,15.3150168 C401.532014,15.1978834 401.401408,15.0996981 401.253822,15.0445765 C401.073586,14.973952 400.895961,14.9808422 400.731396,15.1117559" id="Fill-30" fill="#FFFFFF"></path>
                    <path d="M405,18 C405.117933,18.3269795 405.235866,18.6480938 405.34772,18.973607 C405.46079,19.3020528 405.548328,19.6392962 405.629787,20 C406.031003,19.398827 406.480851,18.8797654 407,18.4472141 C406.88693,18.4354839 406.775076,18.4252199 406.663222,18.4134897 C406.108815,18.3577713 405.567781,18.2360704 405.042553,18.0102639 C405.027964,18.0043988 405.01459,18.0029326 405,18" id="Fill-32" fill="#FFFFFF"></path>
                    <path d="M398.209355,22.1315658 C398.402097,22.7407417 398.683117,23.2995465 399.02299,23.8268694 C399.424658,24.4533604 399.883707,25.0231839 400.445748,25.4922652 C401.453596,26.3375558 402.601219,26.8113593 403.87096,26.9530282 C404.563947,27.030159 405.258406,27.014418 405.948451,26.8900642 C406.847422,26.7310803 407.684598,26.3926493 408.446737,25.8558818 C409.570819,25.0641105 410.431536,24.0173353 411.0539,22.7486122 C411.623298,21.5869278 411.902847,20.3418163 411.976412,19.0384631 C412.013195,18.3993792 412.010252,17.7602954 411.944043,17.1196375 C411.913146,16.8315776 411.864593,16.5450917 411.782199,16.2680505 C411.658609,15.8635072 411.433498,15.5455394 411.089212,15.3283139 C410.892056,15.2055343 410.687544,15.0953474 410.477146,15.0056238 C410.019569,14.8072874 409.548749,14.6640445 409.072044,14.5381167 C408.412897,14.3618177 407.746393,14.2311675 407.072533,14.1445922 C406.75473,14.1036656 406.433984,14.0769059 406.113238,14.0485722 C405.657132,14.0107938 405.198083,13.9950528 404.739033,14.0013492 C404.565419,14.0044974 404.394747,14.0265348 404.228489,14.0847764 C403.996021,14.1634813 403.853304,14.3334839 403.804751,14.5869137 C403.729714,14.9709936 403.775325,15.3424808 403.945997,15.6903565 C404.094599,15.9941574 404.325595,16.2113829 404.597788,16.3845337 C404.883222,16.5639809 405.193669,16.67889 405.514414,16.7686136 C406.013189,16.9071343 406.520791,16.9811169 407.032807,17.0283398 C407.60809,17.0818592 408.183372,17.1054706 408.760126,17.1038965 L409.551692,17.1038965 C409.734134,17.1038965 409.878323,17.1857496 409.963659,17.3589004 C410.010741,17.4501981 410.047524,17.5525145 410.069593,17.6532568 C410.109319,17.8437226 410.141687,17.7996479 409.972487,17.930298 C409.803286,18.0609482 409.614958,18.1616904 409.423688,18.2482658 C409.12354,18.3852124 408.818979,18.5127143 408.520303,18.6512349 C408.227512,18.7866074 407.942077,18.9424431 407.683127,19.1439276 C407.252033,19.4807846 406.866549,19.872735 406.536976,20.3276494 C406.189746,20.8046011 405.904312,21.3209053 405.724812,21.9017475 C405.579152,22.3771251 405.533541,22.8619473 405.612992,23.3593623 C405.660074,23.6552927 405.736582,23.9417786 405.820447,24.2298385 C405.90284,24.5131762 405.979349,24.7965138 406.051443,25.0829997 C406.083812,25.2105016 406.077926,25.3442999 406.032316,25.473376 C406.020545,25.473376 406.008775,25.4765242 405.998476,25.4765242 C405.98082,25.4749501 405.964636,25.4749501 405.949922,25.4718019 C405.729226,25.4371717 405.533541,25.3474481 405.359927,25.1947606 C405.183369,25.040499 405.050951,24.8468849 404.943546,24.6328076 C404.721378,24.1920601 404.616915,23.7135343 404.562476,23.2192675 C404.530107,22.9249112 404.521279,22.6274067 404.522751,22.3314762 C404.522751,22.3062907 404.518337,22.2842533 404.516866,22.248049 C404.491853,22.2685123 404.475669,22.2811051 404.459484,22.2936979 C404.315296,22.4149034 404.15198,22.4684228 403.969538,22.4621264 C403.819464,22.45583 403.675276,22.4259221 403.532558,22.3834215 C403.510489,22.375551 403.486948,22.3739769 403.463407,22.3692546 C403.488419,22.5187939 403.514903,22.6588886 403.532558,22.8021315 C403.586997,23.2397308 403.485477,23.628533 403.205927,23.9590936 C402.791018,24.4502122 402.271645,24.6123443 401.669879,24.5163243 C401.335891,24.4612309 401.028387,24.3305808 400.742953,24.1464113 C400.217695,23.8079802 399.777773,23.370381 399.407002,22.8525027 C399.261343,22.6478699 399.140695,22.4274962 399.050945,22.1898074 C398.936183,21.8797101 398.878802,21.5585941 398.924412,21.2248853 C398.94354,21.0879387 398.984736,20.963585 399.086257,20.8596945 C399.106855,20.8880283 399.125982,20.9132139 399.145109,20.9368253 C399.358449,21.2327558 399.573261,21.5271121 399.783658,21.8246166 C399.9764,22.0969356 400.179441,22.3582359 400.410437,22.5943506 C400.591408,22.7785201 400.787092,22.9469486 401.007789,23.0744505 C401.228485,23.1988043 401.459481,23.2775092 401.711075,23.2601941 C401.977383,23.2413049 402.186309,23.1090807 402.348153,22.8871328 C402.42319,22.7832424 402.454088,22.6620368 402.420247,22.5313867 C402.395235,22.4274962 402.365809,22.3267539 402.329026,22.2291598 C402.233391,21.991471 402.112743,21.7679491 401.984739,21.5491495 C401.627211,20.9399735 401.21083,20.3795946 400.776793,19.8318085 C400.569338,19.5689341 400.351584,19.3170784 400.104404,19.0935565 C399.986699,18.9880919 399.863109,18.8904978 399.723334,18.8196634 C399.607101,18.7614218 399.487925,18.7504031 399.361392,18.7692923 C399.115683,18.8070706 398.909699,18.9267021 398.730199,19.1030011 C398.272622,19.5484708 398.034269,20.1072756 398.003372,20.7668227 C397.981302,21.2374781 398.069581,21.6892442 398.209355,22.1315658" id="Fill-34" fill="#FFFFFF"></path>
                    <path d="M411.997167,5.95916044 C411.983384,5.72319531 411.946169,5.4987007 411.826254,5.30370174 C411.678772,5.06445932 411.474779,4.97597239 411.230814,5.00546803 C411.110899,5.02021586 411.010281,5.08576172 410.916554,5.16769406 C410.795261,5.2742061 410.696021,5.40529784 410.605051,5.54786011 C410.427245,5.8280687 410.289412,6.13285699 410.162605,6.44911581 C409.904857,7.08982669 409.700864,7.75511727 409.50514,8.42532378 L408.023432,13.5182379 C408.015162,13.5477335 408.00827,13.5755905 408,13.6116407 C408.629898,13.7410938 409.251527,13.8705469 409.875912,14 C409.88556,13.9737817 409.89383,13.9508406 409.900722,13.9278995 C409.939315,13.805001 409.97653,13.6821025 410.016502,13.559204 C410.529242,11.8845071 411.032334,10.2081714 411.480292,8.50889477 C411.652584,7.85835201 411.822119,7.20780926 411.944791,6.53924138 C411.979249,6.34915836 412.009572,6.15743669 411.997167,5.95916044" id="Fill-36" fill="#FFFFFF"></path>
                </g>
            </g>
        </g>
    </g>
</svg>
