
<svg width="31px" height="32px" viewBox="0 0 31 32" version="1.1" xmlns="http://www.w3.org/2000/svg" xmlns:xlink="http://www.w3.org/1999/xlink">
    <!-- Generator: Sketch 48.2 (47327) - http://www.bohemiancoding.com/sketch -->
    <desc>Created with Sketch.</desc>
    <defs></defs>
    <g id="WEBSITE" stroke="none" stroke-width="1" fill="none" fill-rule="evenodd">
        <g id="Home-Copy-2" transform="translate(-1015.000000, -9490.000000)" fill="#AABACA">
            <g id="Footer" transform="translate(163.000000, 9132.000000)">
                <g id="Page-1" transform="translate(694.000000, 357.000000)">
                    <path d="M184.63985,10.0832 C184.48485,10.3232 184.3314,10.6448 184.17485,10.8832 C183.8664,11.4432 183.6339,12.0032 183.2464,12.3216 C183.4789,15.2816 182.2389,18.64 179.91545,21.2784 C177.282,24.3968 173.48605,26.1568 169.6901,26.1568 C167.28915,26.1568 164.8107,25.4368 162.4857,24.0768 C162.3307,23.9968 162.25475,23.7568 162.3307,23.5968 C162.3307,23.4384 162.56475,23.3568 162.7182,23.3568 C164.5782,23.5168 167.05665,22.9584 168.6051,21.9968 C166.90165,21.6784 165.3532,20.3984 164.65415,18.7184 C164.5782,18.64 164.65415,18.4 164.73165,18.3184 C164.8107,18.24 164.9657,18.16 165.11915,18.24 C165.42915,18.4 165.6632,18.4 165.89415,18.48 C164.65415,17.68 163.1057,16.1616 163.1057,13.8432 C163.1057,13.6816 163.1832,13.5216 163.3382,13.4432 C163.4157,13.4432 163.6482,13.4432 163.7257,13.5216 C164.0357,13.8432 164.3457,14.0016 164.73165,14.1616 C164.4232,13.6816 164.1907,13.2016 164.0357,12.5632 C163.8032,11.6832 163.5707,9.8448 164.65415,8.0048 C164.73165,7.9248 164.8107,7.8448 164.9657,7.8448 C165.04165,7.8448 165.1982,7.9248 165.2757,8.0048 C167.05665,10.2448 169.3026,12.6432 173.09855,13.0432 C173.09855,11.6032 173.64105,10.3232 174.57105,9.3648 C175.577,8.4048 176.817,7.8448 178.1345,7.8448 C179.14045,7.8448 180.2239,8.2448 181.0764,8.9648 C181.4639,8.8848 182.5489,8.4848 183.32235,8.0048 C183.4789,7.9248 183.6339,7.9248 183.7889,8.0048 C183.9439,8.0848 184.0214,8.2448 183.9439,8.4048 C183.8664,8.8848 183.6339,9.4448 183.32235,9.9232 C183.6339,9.7648 183.9439,9.6032 184.17485,9.5232 C184.3314,9.4448 184.48485,9.4448 184.63985,9.6032 C184.7189,9.6832 184.7189,9.9232 184.63985,10.0832 M185.89845,1 L161.09845,1 C159.395,1 158,2.4416 158,4.2 L158,29.8 C158,31.56 159.395,33 161.09845,33 L185.89845,33 C187.605,33 189,31.56 189,29.8 L189,4.2 C189,2.4416 187.605,1 185.89845,1" id="Fill-8"></path>
                </g>
            </g>
        </g>
    </g>
</svg>
